<?xml version="1.0" encoding="UTF-8"?><svg id="Layer_1" xmlns="http://www.w3.org/2000/svg" viewBox="0 0 735.2 800"><rect x="6.65" y="684.65" width="721.9" height="115.35" rx="17.95" ry="17.95" fill="#223654"/><path d="M321.15,695.82h2.67v8.9h4.32v2.22h-6.99v-11.13Z" fill="#fff"/><path d="M329.69,695.89c0-.82.62-1.35,1.49-1.35s1.49.53,1.49,1.35-.62,1.37-1.49,1.37-1.49-.53-1.49-1.37ZM329.86,698.45h2.63v8.49h-2.63v-8.49Z" fill="#fff"/><path d="M334.65,698.45h2.15l.19,1.06h.07c.7-.68,1.56-1.26,2.72-1.26,1.85,0,2.63,1.32,2.63,3.43v5.26h-2.65v-4.92c0-1.18-.31-1.54-.99-1.54-.6,0-.96.29-1.49.77v5.69h-2.63v-8.49Z" fill="#fff"/><path d="M344.39,703.71v-5.26h2.65v4.92c0,1.18.31,1.52.99,1.52.6,0,.96-.24,1.42-.87v-5.57h2.65v8.49h-2.15l-.19-1.16h-.07c-.7.84-1.5,1.37-2.65,1.37-1.86,0-2.65-1.32-2.65-3.43Z" fill="#fff"/><path d="M356.01,702.52l-2.44-4.07h2.84l.7,1.32c.24.46.48.97.72,1.45h.07c.17-.48.38-.99.55-1.45l.53-1.32h2.73l-2.43,4.38,2.58,4.12h-2.84l-.79-1.33c-.26-.48-.51-.99-.77-1.47h-.07c-.22.48-.43.97-.63,1.47l-.62,1.33h-2.73l2.6-4.43Z" fill="#fff"/><path d="M366.8,695.82h2.67v4.41h.05l3.16-4.41h2.91l-3.35,4.46,3.98,6.67h-2.91l-2.63-4.56-1.21,1.64v2.92h-2.67v-11.13Z" fill="#fff"/><path d="M376.39,702.69c0-2.75,1.98-4.44,4.02-4.44,2.46,0,3.66,1.78,3.66,4.08,0,.48-.05.92-.1,1.16h-5.01c.24,1.14,1.04,1.64,2.12,1.64.62,0,1.23-.19,1.83-.53l.85,1.59c-.89.63-2.05.96-3.06.96-2.43,0-4.31-1.62-4.31-4.46ZM381.8,701.71c0-.84-.38-1.47-1.33-1.47-.75,0-1.38.48-1.55,1.47h2.89Z" fill="#fff"/><path d="M385.75,698.45h2.15l.19,1.47h.07c.62-1.14,1.55-1.67,2.41-1.67.5,0,.79.05,1.03.17l-.5,2.24c-.31-.07-.5-.1-.87-.1-.63,0-1.4.41-1.85,1.54v4.85h-2.63v-8.49Z" fill="#fff"/><path d="M392.67,698.45h2.15l.19,1.06h.07c.7-.68,1.55-1.26,2.72-1.26,1.85,0,2.63,1.32,2.63,3.43v5.26h-2.65v-4.92c0-1.18-.31-1.54-.99-1.54-.6,0-.96.29-1.49.77v5.69h-2.63v-8.49Z" fill="#fff"/><path d="M402.02,702.69c0-2.75,1.98-4.44,4.02-4.44,2.46,0,3.66,1.78,3.66,4.08,0,.48-.05.92-.1,1.16h-5.01c.24,1.14,1.04,1.64,2.12,1.64.62,0,1.23-.19,1.83-.53l.85,1.59c-.89.63-2.05.96-3.06.96-2.43,0-4.31-1.62-4.31-4.46ZM407.44,701.71c0-.84-.38-1.47-1.33-1.47-.75,0-1.38.48-1.55,1.47h2.89Z" fill="#fff"/><path d="M411.39,704.19v-9.2h2.63v9.3c0,.55.27.72.48.72.1,0,.17,0,.31-.04l.31,1.95c-.29.12-.74.22-1.32.22-1.81,0-2.41-1.18-2.41-2.96Z" fill="#fff"/><g id="arrow_styles_for_diagrams_etc"><g id="arrow_styles_for_diagrams_etc-2"><g id="arrow_styles_for_diagrams_etc-3"><g id="arrow_styles_for_diagrams_etc-4"><path d="M366.53,690.69l-16.06-27.94c-.47-.82.12-1.86,1.08-1.86h8.29v-52.39c0-2.48,2.01-4.48,4.48-4.48h6.58c2.47,0,4.47,2,4.47,4.47v52.4h8.29c.95,0,1.55,1.03,1.07,1.86l-16.06,27.94c-.47.82-1.65.82-2.13,0Z" fill="#a3ea2a"/></g></g></g></g><rect x="59.82" y="524.41" width="615.56" height="115.35" rx="17.95" ry="17.95" fill="#223654"/><path d="M308.86,536.26h2.75l2.73,5.33c.39.75.75,1.64,1.09,2.51h.07c-.14-1.2-.34-2.79-.34-4.1v-3.74h2.51v11.12h-2.73l-2.75-5.33c-.38-.75-.73-1.64-1.08-2.51h-.07c.14,1.23.34,2.77.34,4.1v3.74h-2.53v-11.12Z" fill="#fff"/><path d="M319.68,545.01c0-1.79,1.38-2.77,4.73-3.11-.07-.7-.43-1.11-1.3-1.11-.68,0-1.37.24-2.22.72l-.92-1.71c1.11-.68,2.32-1.11,3.66-1.11,2.19,0,3.42,1.21,3.42,3.88v4.82h-2.15l-.19-.85h-.07c-.7.63-1.47,1.06-2.43,1.06-1.56,0-2.53-1.16-2.53-2.58ZM324.41,544.87v-1.35c-1.69.22-2.2.68-2.2,1.28,0,.5.32.73.91.73.53,0,.89-.26,1.3-.67Z" fill="#fff"/><path d="M329.13,544.24v-3.28h-1.15v-1.98l1.3-.09.31-2.6h2.19v2.6h2v2.07h-2v3.25c0,.96.44,1.32,1.08,1.32.27,0,.56-.03.79-.12l.41,1.85c-.44.17-1.09.34-1.93.34-2.12,0-2.99-1.35-2.99-3.35Z" fill="#fff"/><path d="M335.25,536.33c0-.82.62-1.35,1.49-1.35s1.49.53,1.49,1.35-.62,1.37-1.49,1.37-1.49-.53-1.49-1.37ZM335.42,538.89h2.63v8.49h-2.63v-8.49Z" fill="#fff"/><path d="M339.33,538.89h2.65l1.06,3.91c.21.84.43,1.73.63,2.62h.07c.22-.89.44-1.78.65-2.62l1.04-3.91h2.53l-2.73,8.49h-3.06l-2.84-8.49Z" fill="#fff"/><path d="M348.61,543.13c0-2.75,1.98-4.44,4.02-4.44,2.46,0,3.66,1.78,3.66,4.08,0,.48-.05.92-.1,1.16h-5.01c.24,1.15,1.04,1.64,2.12,1.64.62,0,1.23-.19,1.83-.53l.85,1.59c-.89.63-2.05.96-3.06.96-2.43,0-4.31-1.62-4.31-4.46ZM354.03,542.16c0-.84-.38-1.47-1.33-1.47-.75,0-1.38.48-1.56,1.47h2.89Z" fill="#fff"/><path d="M361.6,536.26h2.67v8.9h4.32v2.22h-6.99v-11.12Z" fill="#fff"/><path d="M370.15,536.33c0-.82.62-1.35,1.49-1.35s1.49.53,1.49,1.35-.62,1.37-1.49,1.37-1.49-.53-1.49-1.37ZM370.32,538.89h2.63v8.49h-2.63v-8.49Z" fill="#fff"/><path d="M377.44,546.48h-.07l-.21.91h-2.07v-11.95h2.63v2.87l-.05,1.28c.63-.56,1.4-.91,2.19-.91,2.05,0,3.33,1.69,3.33,4.31,0,2.92-1.73,4.6-3.55,4.6-.77,0-1.54-.38-2.21-1.11ZM380.49,543.03c0-1.49-.44-2.19-1.38-2.19-.5,0-.91.22-1.37.72v3.37c.43.38.87.5,1.28.5.82,0,1.47-.67,1.47-2.39Z" fill="#fff"/><path d="M384.93,538.89h2.15l.19,1.47h.07c.62-1.15,1.55-1.68,2.41-1.68.5,0,.79.05,1.03.17l-.5,2.24c-.31-.07-.5-.1-.87-.1-.63,0-1.4.41-1.85,1.54v4.85h-2.63v-8.49Z" fill="#fff"/><path d="M390.98,545.01c0-1.79,1.38-2.77,4.73-3.11-.07-.7-.43-1.11-1.3-1.11-.68,0-1.37.24-2.22.72l-.92-1.71c1.11-.68,2.32-1.11,3.66-1.11,2.19,0,3.42,1.21,3.42,3.88v4.82h-2.15l-.19-.85h-.07c-.7.63-1.47,1.06-2.43,1.06-1.56,0-2.53-1.16-2.53-2.58ZM395.71,544.87v-1.35c-1.69.22-2.2.68-2.2,1.28,0,.5.32.73.91.73.53,0,.89-.26,1.3-.67Z" fill="#fff"/><path d="M400.41,538.89h2.15l.19,1.47h.07c.62-1.15,1.55-1.68,2.41-1.68.5,0,.79.05,1.03.17l-.5,2.24c-.31-.07-.5-.1-.87-.1-.63,0-1.4.41-1.85,1.54v4.85h-2.63v-8.49Z" fill="#fff"/><path d="M407.17,536.33c0-.82.62-1.35,1.49-1.35s1.49.53,1.49,1.35-.62,1.37-1.49,1.37-1.49-.53-1.49-1.37ZM407.34,538.89h2.63v8.49h-2.63v-8.49Z" fill="#fff"/><path d="M411.64,543.13c0-2.75,1.98-4.44,4.02-4.44,2.46,0,3.66,1.78,3.66,4.08,0,.48-.05.92-.1,1.16h-5.01c.24,1.15,1.04,1.64,2.12,1.64.62,0,1.23-.19,1.83-.53l.85,1.59c-.89.63-2.05.96-3.06.96-2.43,0-4.31-1.62-4.31-4.46ZM417.06,542.16c0-.84-.38-1.47-1.33-1.47-.75,0-1.38.48-1.55,1.47h2.89Z" fill="#fff"/><path d="M420.27,546.31l1.11-1.49c.79.62,1.56.82,2.22.82.72,0,1.01-.26,1.01-.67,0-.51-.72-.73-1.62-1.08-1.21-.44-2.24-1.21-2.24-2.53,0-1.61,1.3-2.68,3.28-2.68,1.25,0,2.31.46,3.04,1.08l-1.13,1.49c-.62-.45-1.25-.62-1.83-.62-.62,0-.91.24-.91.62,0,.44.48.65,1.56.99,1.3.41,2.32,1.18,2.32,2.58,0,1.56-1.23,2.77-3.54,2.77-1.13,0-2.43-.44-3.28-1.28Z" fill="#fff"/><g id="arrow_styles_for_diagrams_etc-5"><g id="arrow_styles_for_diagrams_etc-6"><g id="arrow_styles_for_diagrams_etc-7"><g id="arrow_styles_for_diagrams_etc-8"><path d="M366.53,530.51l-16.06-27.94c-.47-.82.12-1.86,1.08-1.86h8.29v-52.39c0-2.48,2.01-4.48,4.48-4.48h6.58c2.47,0,4.47,2,4.47,4.47v52.4h8.29c.95,0,1.55,1.03,1.07,1.86l-16.06,27.94c-.47.82-1.65.82-2.13,0Z" fill="#a3ea2a"/></g></g></g></g><rect x="172.81" y="364.17" width="389.57" height="115.35" rx="17.95" ry="17.95" fill="#223654"/><path d="M293.3,375.45h3.18l3.47,11.12h-2.8l-.65-2.56h-3.3l-.65,2.56h-2.72l3.47-11.12ZM293.71,381.97h2.27l-.24-.96c-.29-1.09-.58-2.41-.87-3.57h-.07c-.27,1.16-.56,2.48-.85,3.57l-.24.96Z" fill="#fff"/><path d="M300.89,378.09h2.15l.19.82h.07c.65-.6,1.5-1.03,2.38-1.03,2.05,0,3.32,1.69,3.32,4.31,0,2.92-1.73,4.6-3.55,4.6-.73,0-1.4-.31-2-.87l.09,1.32v2.46h-2.63v-11.6ZM306.28,382.22c0-1.49-.44-2.19-1.38-2.19-.5,0-.91.22-1.37.72v3.37c.43.38.87.5,1.28.5.82,0,1.47-.67,1.47-2.39Z" fill="#fff"/><path d="M310.72,378.09h2.15l.19.82h.07c.65-.6,1.5-1.03,2.38-1.03,2.05,0,3.32,1.69,3.32,4.31,0,2.92-1.73,4.6-3.55,4.6-.73,0-1.4-.31-2-.87l.09,1.32v2.46h-2.63v-11.6ZM316.1,382.22c0-1.49-.44-2.19-1.38-2.19-.5,0-.91.22-1.37.72v3.37c.43.38.87.5,1.28.5.82,0,1.47-.67,1.47-2.39Z" fill="#fff"/><path d="M320.55,383.83v-9.19h2.63v9.3c0,.55.27.72.48.72.1,0,.17,0,.31-.03l.31,1.95c-.29.12-.73.22-1.32.22-1.81,0-2.41-1.18-2.41-2.96Z" fill="#fff"/><path d="M325.33,375.52c0-.82.62-1.35,1.49-1.35s1.49.53,1.49,1.35-.62,1.37-1.49,1.37-1.49-.53-1.49-1.37ZM325.5,378.09h2.63v8.49h-2.63v-8.49Z" fill="#fff"/><path d="M329.81,382.32c0-2.82,2.1-4.44,4.46-4.44,1.04,0,1.85.36,2.48.91l-1.23,1.62c-.39-.29-.72-.41-1.09-.41-1.18,0-1.91.92-1.91,2.32s.79,2.32,1.83,2.32c.56,0,1.04-.21,1.47-.53l1.03,1.66c-.82.75-1.9,1.01-2.8,1.01-2.39,0-4.22-1.64-4.22-4.46Z" fill="#fff"/><path d="M337.76,384.2c0-1.79,1.38-2.77,4.73-3.11-.07-.7-.43-1.11-1.3-1.11-.68,0-1.37.24-2.22.72l-.92-1.71c1.11-.68,2.32-1.11,3.66-1.11,2.19,0,3.42,1.21,3.42,3.88v4.82h-2.15l-.19-.85h-.07c-.7.63-1.47,1.06-2.43,1.06-1.56,0-2.53-1.16-2.53-2.58ZM342.49,384.07v-1.35c-1.69.22-2.2.68-2.2,1.28,0,.5.32.73.91.73.53,0,.89-.26,1.3-.67Z" fill="#fff"/><path d="M347.21,383.43v-3.28h-1.15v-1.98l1.3-.09.31-2.6h2.19v2.6h2v2.07h-2v3.25c0,.96.44,1.32,1.08,1.32.27,0,.56-.03.79-.12l.41,1.85c-.44.17-1.09.34-1.93.34-2.12,0-2.99-1.35-2.99-3.35Z" fill="#fff"/><path d="M353.33,375.52c0-.82.62-1.35,1.49-1.35s1.49.53,1.49,1.35-.62,1.37-1.49,1.37-1.49-.53-1.49-1.37ZM353.5,378.09h2.63v8.49h-2.63v-8.49Z" fill="#fff"/><path d="M357.81,382.32c0-2.82,2-4.44,4.15-4.44s4.17,1.62,4.17,4.44-2,4.46-4.17,4.46-4.15-1.64-4.15-4.46ZM363.41,382.32c0-1.4-.46-2.32-1.45-2.32s-1.45.92-1.45,2.32.46,2.32,1.45,2.32,1.45-.91,1.45-2.32Z" fill="#fff"/><path d="M367.8,378.09h2.15l.19,1.06h.07c.7-.68,1.55-1.27,2.72-1.27,1.85,0,2.63,1.32,2.63,3.44v5.26h-2.65v-4.92c0-1.18-.31-1.54-.99-1.54-.6,0-.96.29-1.49.77v5.69h-2.63v-8.49Z" fill="#fff"/><path d="M381.26,375.45h4.08c2.36,0,4.34.82,4.34,3.5,0,1.62-.77,2.67-1.91,3.21l2.48,4.41h-2.97l-2.05-3.91h-1.3v3.91h-2.67v-11.12ZM385.14,380.56c1.26,0,1.95-.55,1.95-1.61s-.68-1.4-1.95-1.4h-1.21v3.01h1.21Z" fill="#fff"/><path d="M391.53,383.35v-5.26h2.65v4.92c0,1.18.31,1.52.99,1.52.6,0,.96-.24,1.42-.87v-5.57h2.65v8.49h-2.15l-.19-1.16h-.07c-.7.84-1.5,1.37-2.65,1.37-1.86,0-2.65-1.32-2.65-3.44Z" fill="#fff"/><path d="M401.39,378.09h2.15l.19,1.06h.07c.7-.68,1.56-1.27,2.72-1.27,1.85,0,2.63,1.32,2.63,3.44v5.26h-2.65v-4.92c0-1.18-.31-1.54-.99-1.54-.6,0-.96.29-1.49.77v5.69h-2.63v-8.49Z" fill="#fff"/><path d="M411.56,383.43v-3.28h-1.15v-1.98l1.3-.09.31-2.6h2.19v2.6h2v2.07h-2v3.25c0,.96.44,1.32,1.08,1.32.27,0,.56-.03.79-.12l.41,1.85c-.45.17-1.09.34-1.93.34-2.12,0-2.99-1.35-2.99-3.35Z" fill="#fff"/><path d="M417.68,375.52c0-.82.62-1.35,1.49-1.35s1.49.53,1.49,1.35-.62,1.37-1.49,1.37-1.49-.53-1.49-1.37ZM417.85,378.09h2.63v8.49h-2.63v-8.49Z" fill="#fff"/><path d="M422.63,378.09h2.15l.19,1.06h.07c.68-.68,1.44-1.27,2.56-1.27s1.91.5,2.34,1.4c.73-.75,1.52-1.4,2.65-1.4,1.85,0,2.67,1.32,2.67,3.44v5.26h-2.63v-4.92c0-1.18-.33-1.54-.99-1.54-.41,0-.85.26-1.37.77v5.69h-2.65v-4.92c0-1.18-.31-1.54-.99-1.54-.39,0-.85.26-1.37.77v5.69h-2.63v-8.49Z" fill="#fff"/><path d="M436.87,382.32c0-2.75,1.98-4.44,4.02-4.44,2.46,0,3.66,1.78,3.66,4.08,0,.48-.05.92-.1,1.16h-5.01c.24,1.15,1.04,1.64,2.12,1.64.62,0,1.23-.19,1.83-.53l.85,1.59c-.89.63-2.05.96-3.06.96-2.43,0-4.31-1.62-4.31-4.46ZM442.29,381.35c0-.84-.38-1.47-1.33-1.47-.75,0-1.38.48-1.56,1.47h2.89Z" fill="#fff"/><g id="arrow_styles_for_diagrams_etc-9"><g id="arrow_styles_for_diagrams_etc-10"><g id="arrow_styles_for_diagrams_etc-11"><g id="arrow_styles_for_diagrams_etc-12"><path d="M366.53,370.63l-16.06-27.94c-.47-.82.12-1.86,1.08-1.86h8.29v-52.39c0-2.48,2.01-4.48,4.48-4.48h6.58c2.47,0,4.47,2,4.47,4.47v52.4h8.29c.95,0,1.55,1.03,1.07,1.86l-16.06,27.94c-.47.82-1.65.82-2.13,0Z" fill="#a3ea2a"/></g></g></g></g><rect y="203.92" width="735.2" height="115.35" rx="17.95" ry="17.95" fill="#223654"/><path d="M282.51,215.76h3.18l3.47,11.13h-2.8l-.65-2.56h-3.3l-.65,2.56h-2.72l3.47-11.13ZM282.92,222.28h2.27l-.24-.96c-.29-1.09-.58-2.41-.87-3.57h-.07c-.27,1.16-.56,2.48-.85,3.57l-.24.96Z" fill="#fff"/><path d="M290.1,218.4h2.15l.19.82h.07c.65-.6,1.5-1.03,2.38-1.03,2.05,0,3.32,1.69,3.32,4.31,0,2.92-1.73,4.6-3.55,4.6-.73,0-1.4-.31-2-.87l.09,1.32v2.46h-2.63v-11.6ZM295.48,222.53c0-1.49-.44-2.19-1.38-2.19-.5,0-.91.22-1.37.72v3.37c.43.38.87.5,1.28.5.82,0,1.47-.67,1.47-2.39Z" fill="#fff"/><path d="M299.93,218.4h2.15l.19.82h.07c.65-.6,1.5-1.03,2.38-1.03,2.05,0,3.32,1.69,3.32,4.31,0,2.92-1.73,4.6-3.55,4.6-.73,0-1.4-.31-2-.87l.09,1.32v2.46h-2.63v-11.6ZM305.31,222.53c0-1.49-.44-2.19-1.38-2.19-.5,0-.91.22-1.37.72v3.37c.43.38.87.5,1.28.5.82,0,1.47-.67,1.47-2.39Z" fill="#fff"/><path d="M309.75,224.14v-9.2h2.63v9.3c0,.55.27.72.48.72.1,0,.17,0,.31-.04l.31,1.95c-.29.12-.73.22-1.32.22-1.81,0-2.41-1.18-2.41-2.96Z" fill="#fff"/><path d="M314.54,215.83c0-.82.62-1.35,1.49-1.35s1.49.53,1.49,1.35-.62,1.37-1.49,1.37-1.49-.53-1.49-1.37ZM314.71,218.4h2.63v8.49h-2.63v-8.49Z" fill="#fff"/><path d="M319.02,222.64c0-2.82,2.1-4.44,4.46-4.44,1.04,0,1.85.36,2.48.91l-1.23,1.62c-.39-.29-.72-.41-1.09-.41-1.18,0-1.91.92-1.91,2.32s.79,2.32,1.83,2.32c.56,0,1.04-.21,1.47-.53l1.03,1.66c-.82.75-1.9,1.01-2.8,1.01-2.39,0-4.22-1.64-4.22-4.46Z" fill="#fff"/><path d="M326.97,224.51c0-1.79,1.38-2.77,4.73-3.11-.07-.7-.43-1.11-1.3-1.11-.68,0-1.37.24-2.22.72l-.92-1.71c1.11-.68,2.32-1.11,3.66-1.11,2.19,0,3.42,1.21,3.42,3.88v4.82h-2.15l-.19-.85h-.07c-.7.63-1.47,1.06-2.43,1.06-1.56,0-2.53-1.16-2.53-2.58ZM331.7,224.38v-1.35c-1.69.22-2.2.68-2.2,1.28,0,.5.32.74.91.74.53,0,.89-.26,1.3-.67Z" fill="#fff"/><path d="M336.42,223.75v-3.28h-1.15v-1.98l1.3-.08.31-2.6h2.19v2.6h2v2.07h-2v3.25c0,.96.44,1.32,1.08,1.32.27,0,.56-.04.79-.12l.41,1.85c-.44.17-1.09.34-1.93.34-2.12,0-2.99-1.35-2.99-3.35Z" fill="#fff"/><path d="M342.53,215.83c0-.82.62-1.35,1.49-1.35s1.49.53,1.49,1.35-.62,1.37-1.49,1.37-1.49-.53-1.49-1.37ZM342.71,218.4h2.63v8.49h-2.63v-8.49Z" fill="#fff"/><path d="M347.01,222.64c0-2.82,2-4.44,4.15-4.44s4.17,1.62,4.17,4.44-2,4.46-4.17,4.46-4.15-1.64-4.15-4.46ZM352.62,222.64c0-1.4-.46-2.32-1.45-2.32s-1.45.92-1.45,2.32.46,2.32,1.45,2.32,1.45-.91,1.45-2.32Z" fill="#fff"/><path d="M357.01,218.4h2.15l.19,1.06h.07c.7-.68,1.56-1.26,2.72-1.26,1.85,0,2.63,1.32,2.63,3.43v5.26h-2.65v-4.92c0-1.18-.31-1.54-.99-1.54-.6,0-.96.29-1.49.77v5.69h-2.63v-8.49Z" fill="#fff"/><path d="M370.46,215.76h7.11v2.22h-4.44v2.43h3.79v2.22h-3.79v4.25h-2.67v-11.13Z" fill="#fff"/><path d="M378.94,218.4h2.15l.19,1.47h.07c.62-1.14,1.56-1.67,2.41-1.67.5,0,.79.05,1.03.17l-.5,2.24c-.31-.07-.5-.1-.87-.1-.63,0-1.4.41-1.85,1.54v4.85h-2.63v-8.49Z" fill="#fff"/><path d="M384.99,224.51c0-1.79,1.38-2.77,4.73-3.11-.07-.7-.43-1.11-1.3-1.11-.68,0-1.37.24-2.22.72l-.92-1.71c1.11-.68,2.32-1.11,3.66-1.11,2.19,0,3.42,1.21,3.42,3.88v4.82h-2.15l-.19-.85h-.07c-.7.63-1.47,1.06-2.43,1.06-1.56,0-2.53-1.16-2.53-2.58ZM389.72,224.38v-1.35c-1.69.22-2.2.68-2.2,1.28,0,.5.32.74.91.74.53,0,.89-.26,1.3-.67Z" fill="#fff"/><path d="M394.42,218.4h2.15l.19,1.06h.07c.68-.68,1.44-1.26,2.56-1.26s1.91.5,2.34,1.4c.74-.75,1.52-1.4,2.65-1.4,1.85,0,2.67,1.32,2.67,3.43v5.26h-2.63v-4.92c0-1.18-.32-1.54-.99-1.54-.41,0-.85.26-1.37.77v5.69h-2.65v-4.92c0-1.18-.31-1.54-.99-1.54-.39,0-.86.26-1.37.77v5.69h-2.63v-8.49Z" fill="#fff"/><path d="M408.66,222.64c0-2.75,1.98-4.44,4.02-4.44,2.46,0,3.66,1.78,3.66,4.08,0,.48-.05.92-.1,1.16h-5.01c.24,1.14,1.04,1.64,2.12,1.64.62,0,1.23-.19,1.83-.53l.85,1.59c-.89.63-2.05.96-3.06.96-2.43,0-4.31-1.62-4.31-4.46ZM414.08,221.66c0-.84-.38-1.47-1.33-1.47-.75,0-1.38.48-1.56,1.47h2.89Z" fill="#fff"/><path d="M417.24,218.4h2.61l.77,3.83c.14.82.24,1.64.36,2.56h.07c.15-.92.29-1.76.48-2.56l.87-3.83h2.34l.91,3.83c.19.82.34,1.64.5,2.56h.07c.15-.92.22-1.74.38-2.56l.75-3.83h2.44l-2,8.49h-3.14l-.68-3.26c-.15-.79-.29-1.54-.43-2.51h-.07c-.14.97-.24,1.73-.39,2.51l-.67,3.26h-3.06l-2.1-8.49Z" fill="#fff"/><path d="M430.64,222.64c0-2.82,2-4.44,4.15-4.44s4.17,1.62,4.17,4.44-2,4.46-4.17,4.46-4.15-1.64-4.15-4.46ZM436.25,222.64c0-1.4-.46-2.32-1.45-2.32s-1.45.92-1.45,2.32.46,2.32,1.45,2.32,1.45-.91,1.45-2.32Z" fill="#fff"/><path d="M440.64,218.4h2.15l.19,1.47h.07c.62-1.14,1.55-1.67,2.41-1.67.5,0,.79.05,1.03.17l-.5,2.24c-.31-.07-.5-.1-.87-.1-.63,0-1.4.41-1.85,1.54v4.85h-2.63v-8.49Z" fill="#fff"/><path d="M447.56,214.94h2.62v6.67h.05l2.53-3.21h2.91l-2.96,3.54,3.16,4.96h-2.87l-1.85-3.23-.97,1.13v2.1h-2.62v-11.95Z" fill="#fff"/><g id="arrow_styles_for_diagrams_etc-13"><g id="arrow_styles_for_diagrams_etc-14"><g id="arrow_styles_for_diagrams_etc-15"><g id="arrow_styles_for_diagrams_etc-16"><path d="M366.53,209.74l-16.06-27.94c-.47-.82.12-1.86,1.08-1.86h8.29v-52.39c0-2.48,2.01-4.48,4.48-4.48h6.58c2.47,0,4.47,2,4.47,4.47v52.4h8.29c.95,0,1.55,1.03,1.07,1.86l-16.06,27.94c-.47.82-1.65.82-2.13,0Z" fill="#a3ea2a"/></g></g></g></g><rect x="166.85" y="0" width="401.5" height="159.02" rx="20.6" ry="20.6" fill="#223654"/><path d="M300.76,11.9h3.18l3.47,11.12h-2.8l-.65-2.56h-3.3l-.65,2.56h-2.72l3.47-11.12ZM301.17,18.42h2.27l-.24-.96c-.29-1.09-.58-2.41-.87-3.57h-.07c-.27,1.16-.56,2.48-.85,3.57l-.24.96Z" fill="#fff"/><path d="M308.34,14.54h2.15l.19.82h.07c.65-.6,1.5-1.03,2.38-1.03,2.05,0,3.32,1.69,3.32,4.31,0,2.92-1.73,4.6-3.55,4.6-.73,0-1.4-.31-2-.87l.09,1.32v2.46h-2.63v-11.6ZM313.73,18.67c0-1.49-.44-2.19-1.38-2.19-.5,0-.91.22-1.37.72v3.37c.43.38.87.5,1.28.5.82,0,1.47-.67,1.47-2.39Z" fill="#fff"/><path d="M318.17,14.54h2.15l.19.82h.07c.65-.6,1.5-1.03,2.38-1.03,2.05,0,3.32,1.69,3.32,4.31,0,2.92-1.73,4.6-3.55,4.6-.73,0-1.4-.31-2-.87l.09,1.32v2.46h-2.63v-11.6ZM323.56,18.67c0-1.49-.44-2.19-1.38-2.19-.5,0-.91.22-1.37.72v3.37c.43.38.87.5,1.28.5.82,0,1.47-.67,1.47-2.39Z" fill="#fff"/><path d="M328,20.28v-9.19h2.63v9.3c0,.55.27.72.48.72.1,0,.17,0,.31-.03l.31,1.95c-.29.12-.73.22-1.32.22-1.81,0-2.41-1.18-2.41-2.96Z" fill="#fff"/><path d="M332.78,11.97c0-.82.62-1.35,1.49-1.35s1.49.53,1.49,1.35-.62,1.37-1.49,1.37-1.49-.53-1.49-1.37ZM332.96,14.54h2.63v8.49h-2.63v-8.49Z" fill="#fff"/><path d="M337.26,18.77c0-2.82,2.1-4.44,4.46-4.44,1.04,0,1.85.36,2.48.91l-1.23,1.62c-.39-.29-.72-.41-1.09-.41-1.18,0-1.91.92-1.91,2.32s.79,2.32,1.83,2.32c.56,0,1.04-.21,1.47-.53l1.03,1.66c-.82.75-1.9,1.01-2.8,1.01-2.39,0-4.22-1.64-4.22-4.46Z" fill="#fff"/><path d="M345.21,20.65c0-1.79,1.38-2.77,4.73-3.11-.07-.7-.43-1.11-1.3-1.11-.68,0-1.37.24-2.22.72l-.92-1.71c1.11-.68,2.32-1.11,3.66-1.11,2.19,0,3.42,1.21,3.42,3.88v4.82h-2.15l-.19-.85h-.07c-.7.63-1.47,1.06-2.43,1.06-1.56,0-2.53-1.16-2.53-2.58ZM349.94,20.52v-1.35c-1.69.22-2.2.68-2.2,1.28,0,.5.32.73.91.73.53,0,.89-.26,1.3-.67Z" fill="#fff"/><path d="M354.66,19.88v-3.28h-1.15v-1.98l1.3-.09.31-2.6h2.19v2.6h2v2.07h-2v3.25c0,.96.44,1.32,1.08,1.32.27,0,.56-.03.79-.12l.41,1.85c-.44.17-1.09.34-1.93.34-2.12,0-2.99-1.35-2.99-3.35Z" fill="#fff"/><path d="M360.78,11.97c0-.82.62-1.35,1.49-1.35s1.49.53,1.49,1.35-.62,1.37-1.49,1.37-1.49-.53-1.49-1.37ZM360.95,14.54h2.63v8.49h-2.63v-8.49Z" fill="#fff"/><path d="M365.26,18.77c0-2.82,2-4.44,4.15-4.44s4.17,1.62,4.17,4.44-2,4.46-4.17,4.46-4.15-1.64-4.15-4.46ZM370.86,18.77c0-1.4-.46-2.32-1.45-2.32s-1.45.92-1.45,2.32.46,2.32,1.45,2.32,1.45-.91,1.45-2.32Z" fill="#fff"/><path d="M375.26,14.54h2.15l.19,1.06h.07c.7-.68,1.55-1.27,2.72-1.27,1.85,0,2.63,1.32,2.63,3.44v5.26h-2.65v-4.92c0-1.18-.31-1.54-.99-1.54-.6,0-.96.29-1.49.77v5.69h-2.63v-8.49Z" fill="#fff"/><path d="M384.35,21.95l1.11-1.49c.79.62,1.56.82,2.22.82.72,0,1.01-.26,1.01-.67,0-.51-.72-.73-1.62-1.08-1.21-.44-2.24-1.21-2.24-2.53,0-1.61,1.3-2.68,3.28-2.68,1.25,0,2.31.46,3.04,1.08l-1.13,1.49c-.62-.45-1.25-.62-1.83-.62-.62,0-.91.24-.91.62,0,.44.48.65,1.56.99,1.3.41,2.32,1.18,2.32,2.58,0,1.56-1.23,2.77-3.54,2.77-1.13,0-2.43-.44-3.28-1.28Z" fill="#fff"/><path d="M396.33,11.9h2.67v8.9h4.32v2.22h-6.99v-11.12Z" fill="#fff"/><path d="M404.67,20.65c0-1.79,1.38-2.77,4.73-3.11-.07-.7-.43-1.11-1.3-1.11-.68,0-1.37.24-2.22.72l-.92-1.71c1.11-.68,2.32-1.11,3.66-1.11,2.19,0,3.42,1.21,3.42,3.88v4.82h-2.15l-.19-.85h-.07c-.7.63-1.47,1.06-2.43,1.06-1.55,0-2.53-1.16-2.53-2.58ZM409.4,20.52v-1.35c-1.69.22-2.21.68-2.21,1.28,0,.5.33.73.91.73.53,0,.89-.26,1.3-.67Z" fill="#fff"/><path d="M413.92,26.11l.46-1.95c.27.07.39.08.56.08.82,0,1.23-.43,1.44-1.04l.12-.41-3.26-8.25h2.65l1.16,3.52c.24.79.43,1.57.65,2.41h.07c.19-.8.36-1.61.58-2.41l.97-3.52h2.53l-2.92,8.51c-.84,2.19-1.74,3.26-3.78,3.26-.55,0-.89-.07-1.23-.21Z" fill="#fff"/><path d="M422.5,18.77c0-2.75,1.98-4.44,4.02-4.44,2.46,0,3.66,1.78,3.66,4.08,0,.48-.05.92-.1,1.16h-5.01c.24,1.15,1.04,1.64,2.12,1.64.62,0,1.23-.19,1.83-.53l.85,1.59c-.89.63-2.05.96-3.06.96-2.43,0-4.31-1.62-4.31-4.46ZM427.91,17.8c0-.84-.38-1.47-1.33-1.47-.75,0-1.38.48-1.56,1.47h2.89Z" fill="#fff"/><path d="M431.86,14.54h2.15l.19,1.47h.07c.62-1.15,1.55-1.68,2.41-1.68.5,0,.79.05,1.03.17l-.5,2.24c-.31-.07-.5-.1-.87-.1-.63,0-1.4.41-1.85,1.54v4.85h-2.63v-8.49Z" fill="#fff"/><rect x="195.93" y="45.41" width="159.3" height="91.79" rx="11.89" ry="11.89" fill="#1c2538"/><rect x="379.97" y="45.41" width="159.3" height="91.79" rx="11.89" ry="11.89" fill="#1c2538"/><path d="M238.98,62.75h3.02c1.79,0,3.22.48,3.22,2.15,0,.76-.43,1.59-1.13,1.86v.05c.88.24,1.56.88,1.56,2.03,0,1.77-1.52,2.55-3.39,2.55h-3.27v-8.65ZM241.92,66.2c.89,0,1.28-.39,1.28-.98s-.41-.88-1.26-.88h-.88v1.86h.86ZM242.09,69.82c1.01,0,1.53-.37,1.53-1.1s-.51-1.01-1.53-1.01h-1.04v2.11h1.04Z" fill="#fff"/><path d="M246.83,68.89v-4.09h2.06v3.83c0,.92.24,1.18.77,1.18.47,0,.74-.19,1.1-.68v-4.33h2.06v6.61h-1.67l-.15-.9h-.05c-.54.65-1.17,1.06-2.06,1.06-1.45,0-2.06-1.02-2.06-2.67Z" fill="#fff"/><path d="M254.36,62.81c0-.64.48-1.05,1.16-1.05s1.16.41,1.16,1.05-.48,1.06-1.16,1.06-1.16-.41-1.16-1.06ZM254.5,64.8h2.05v6.61h-2.05v-6.61Z" fill="#fff"/><path d="M258.22,69.27v-7.15h2.05v7.23c0,.42.21.56.37.56.08,0,.13,0,.24-.03l.24,1.51c-.23.09-.57.17-1.02.17-1.41,0-1.87-.92-1.87-2.3Z" fill="#fff"/><path d="M262.34,68.96v-2.55h-.89v-1.54l1.01-.07.24-2.02h1.7v2.02h1.56v1.61h-1.56v2.53c0,.74.35,1.02.84,1.02.21,0,.44-.03.61-.09l.32,1.44c-.35.13-.85.27-1.5.27-1.65,0-2.33-1.05-2.33-2.6Z" fill="#fff"/><path d="M266.49,67.31h3.28v1.45h-3.28v-1.45Z" fill="#fff"/><path d="M271.05,62.81c0-.64.48-1.05,1.16-1.05s1.16.41,1.16,1.05-.48,1.06-1.16,1.06-1.16-.41-1.16-1.06ZM271.18,64.8h2.05v6.61h-2.05v-6.61Z" fill="#fff"/><path d="M274.9,64.8h1.67l.15.82h.05c.54-.53,1.21-.98,2.11-.98,1.44,0,2.05,1.02,2.05,2.67v4.09h-2.06v-3.83c0-.92-.24-1.2-.77-1.2-.46,0-.74.23-1.16.6v4.43h-2.05v-6.61Z" fill="#fff"/><path d="M286.96,62.75h2.47l2.7,8.65h-2.18l-.5-1.99h-2.57l-.5,1.99h-2.11l2.7-8.65ZM287.28,67.82h1.77l-.19-.74c-.23-.85-.45-1.87-.68-2.78h-.05c-.21.9-.44,1.93-.66,2.78l-.19.74Z" fill="#fff"/><path d="M292.86,64.8h1.67l.15.64h.05c.5-.46,1.17-.8,1.85-.8,1.59,0,2.58,1.32,2.58,3.35,0,2.27-1.34,3.58-2.76,3.58-.57,0-1.09-.24-1.56-.68l.07,1.02v1.91h-2.05v-9.02ZM297.05,68.02c0-1.16-.35-1.7-1.08-1.7-.39,0-.7.17-1.06.56v2.62c.33.29.68.39,1,.39.64,0,1.14-.52,1.14-1.86Z" fill="#fff"/><path d="M300.51,64.8h1.67l.15.64h.05c.5-.46,1.17-.8,1.85-.8,1.59,0,2.58,1.32,2.58,3.35,0,2.27-1.34,3.58-2.76,3.58-.57,0-1.09-.24-1.56-.68l.07,1.02v1.91h-2.05v-9.02ZM304.69,68.02c0-1.16-.35-1.7-1.08-1.7-.39,0-.7.17-1.06.56v2.62c.33.29.68.39,1,.39.64,0,1.14-.52,1.14-1.86Z" fill="#fff"/><path d="M307.51,70.57l.86-1.16c.61.48,1.21.64,1.73.64.56,0,.78-.2.78-.52,0-.4-.56-.57-1.26-.84-.94-.35-1.74-.94-1.74-1.97,0-1.25,1.01-2.09,2.55-2.09.97,0,1.79.36,2.37.84l-.88,1.16c-.48-.35-.97-.48-1.42-.48-.48,0-.7.19-.7.48,0,.35.37.5,1.21.77,1.01.32,1.81.92,1.81,2.01,0,1.21-.96,2.15-2.75,2.15-.88,0-1.89-.35-2.55-1Z" fill="#fff"/><path d="M240.8,83.86c0-1,.73-1.73,1.62-1.73s1.63.73,1.63,1.73-.73,1.73-1.63,1.73-1.62-.72-1.62-1.73Z" fill="#fff"/><path d="M254.94,78.51c1.05,0,1.93.52,2.47,1.1l-.86.96c-.44-.44-.93-.72-1.59-.72-1.44,0-2.45,1.2-2.45,3.15s.93,3.18,2.39,3.18c.77,0,1.33-.32,1.82-.86l.86.94c-.7.81-1.62,1.26-2.71,1.26-2.22,0-3.95-1.59-3.95-4.48s1.78-4.53,4.01-4.53Z" fill="#fff"/><path d="M261.57,80.67c1.63,0,3.11,1.25,3.11,3.43s-1.48,3.42-3.11,3.42-3.1-1.25-3.1-3.42,1.48-3.43,3.1-3.43ZM261.57,86.27c.96,0,1.54-.86,1.54-2.17s-.58-2.18-1.54-2.18-1.53.86-1.53,2.18.57,2.17,1.53,2.17Z" fill="#fff"/><path d="M266.2,80.83h1.26l.11.88h.05c.58-.57,1.25-1.04,2.14-1.04,1.4,0,2.01.94,2.01,2.59v4.09h-1.53v-3.89c0-1.08-.31-1.47-1.02-1.47-.57,0-.94.28-1.49.81v4.56h-1.53v-6.53Z" fill="#fff"/><path d="M273.87,82.04h-.93v-1.14l1.01-.07.19-1.78h1.28v1.78h1.66v1.21h-1.66v3.11c0,.77.29,1.14.92,1.14.23,0,.49-.07.68-.15l.27,1.13c-.36.12-.81.24-1.33.24-1.52,0-2.07-.96-2.07-2.37v-3.11Z" fill="#fff"/><path d="M281.8,83.18c-.01-.69-.31-1.28-1.18-1.28-.65,0-1.26.29-1.83.64l-.56-1.02c.72-.45,1.63-.85,2.67-.85,1.63,0,2.43,1,2.43,2.82v3.87h-1.25l-.12-.72h-.04c-.58.49-1.25.88-2.02.88-1.14,0-1.94-.77-1.94-1.91,0-1.4,1.17-2.13,3.84-2.42ZM280.38,86.32c.53,0,.94-.27,1.42-.72v-1.46c-1.77.23-2.35.69-2.35,1.34,0,.58.39.84.93.84Z" fill="#fff"/><path d="M288.04,80.67c.84,0,1.48.33,1.91.76l-.73.97c-.35-.31-.69-.48-1.1-.48-1.05,0-1.78.86-1.78,2.18s.72,2.17,1.74,2.17c.53,0,.98-.27,1.34-.56l.64.97c-.61.54-1.4.84-2.14.84-1.78,0-3.15-1.25-3.15-3.42s1.53-3.43,3.27-3.43Z" fill="#fff"/><path d="M291.56,82.04h-.93v-1.14l1.01-.07.19-1.78h1.28v1.78h1.66v1.21h-1.66v3.11c0,.77.29,1.14.92,1.14.23,0,.49-.07.68-.15l.27,1.13c-.36.12-.81.24-1.33.24-1.52,0-2.07-.96-2.07-2.37v-3.11Z" fill="#fff"/><path d="M296.2,85.63c.58.45,1.14.73,1.81.73.7,0,1.04-.33,1.04-.78,0-.54-.7-.78-1.4-1.05-.86-.32-1.83-.81-1.83-1.9s.92-1.95,2.38-1.95c.9,0,1.63.37,2.17.78l-.7.93c-.45-.33-.92-.56-1.44-.56-.65,0-.96.31-.96.72,0,.52.65.72,1.36.97.89.33,1.87.76,1.87,1.98,0,1.12-.89,2.02-2.54,2.02-.89,0-1.83-.38-2.47-.9l.72-.98Z" fill="#fff"/><path d="M244.06,99.81c0-1,.73-1.73,1.62-1.73s1.63.73,1.63,1.73-.73,1.73-1.63,1.73-1.62-.72-1.62-1.73Z" fill="#fff"/><path d="M258.19,94.46c1.05,0,1.93.52,2.47,1.1l-.86.96c-.44-.44-.93-.72-1.59-.72-1.44,0-2.45,1.2-2.45,3.15s.93,3.18,2.39,3.18c.77,0,1.33-.32,1.82-.86l.86.94c-.7.81-1.62,1.26-2.71,1.26-2.22,0-3.95-1.59-3.95-4.48s1.78-4.53,4.01-4.53Z" fill="#fff"/><path d="M265.72,99.14c-.01-.69-.31-1.28-1.18-1.28-.65,0-1.26.29-1.83.64l-.56-1.02c.72-.45,1.63-.85,2.67-.85,1.63,0,2.43,1,2.43,2.82v3.87h-1.25l-.12-.72h-.04c-.58.49-1.25.88-2.02.88-1.14,0-1.94-.77-1.94-1.91,0-1.4,1.17-2.13,3.84-2.42ZM264.29,102.27c.53,0,.94-.27,1.42-.72v-1.46c-1.77.23-2.35.69-2.35,1.34,0,.58.39.84.93.84Z" fill="#fff"/><path d="M269.11,96.78h1.26l.11.89h.05c.54-.58,1.18-1.05,1.99-1.05.96,0,1.5.44,1.81,1.17.62-.66,1.28-1.17,2.1-1.17,1.38,0,2.02.94,2.02,2.59v4.09h-1.54v-3.89c0-1.08-.32-1.47-1-1.47-.41,0-.86.27-1.37.81v4.56h-1.53v-3.89c0-1.08-.32-1.47-1.01-1.47-.4,0-.86.27-1.37.81v4.56h-1.53v-6.53Z" fill="#fff"/><path d="M282.89,96.62c1.77,0,2.7,1.28,2.7,3.1,0,.29-.03.56-.07.72h-4.15c.13,1.18.88,1.85,1.93,1.85.56,0,1.04-.17,1.52-.48l.52.96c-.62.41-1.41.7-2.23.7-1.81,0-3.22-1.26-3.22-3.42s1.48-3.43,3-3.43ZM284.26,99.47c0-1.04-.44-1.66-1.33-1.66-.77,0-1.44.57-1.57,1.66h2.9Z" fill="#fff"/><path d="M287.05,96.78h1.26l.11,1.16h.05c.47-.85,1.16-1.32,1.85-1.32.33,0,.54.04.74.13l-.27,1.33c-.23-.07-.4-.11-.68-.11-.52,0-1.14.36-1.54,1.34v3.99h-1.53v-6.53Z" fill="#fff"/><path d="M295.21,99.14c-.01-.69-.31-1.28-1.18-1.28-.65,0-1.26.29-1.83.64l-.56-1.02c.72-.45,1.63-.85,2.67-.85,1.63,0,2.43,1,2.43,2.82v3.87h-1.25l-.12-.72h-.04c-.58.49-1.25.88-2.02.88-1.14,0-1.94-.77-1.94-1.91,0-1.4,1.17-2.13,3.84-2.42ZM293.79,102.27c.53,0,.94-.27,1.42-.72v-1.46c-1.77.23-2.35.69-2.35,1.34,0,.58.39.84.93.84Z" fill="#fff"/><path d="M245.64,115.77c0-1,.73-1.73,1.62-1.73s1.63.73,1.63,1.73-.73,1.73-1.63,1.73-1.62-.72-1.62-1.73Z" fill="#fff"/><path d="M259.91,110.41c1.2,0,2.05.54,2.59,1.1l-.85.96c-.44-.43-.92-.72-1.73-.72-1.54,0-2.58,1.2-2.58,3.15s.92,3.18,2.66,3.18c.49,0,.97-.13,1.25-.39v-1.87h-1.65v-1.26h3.03v3.83c-.6.58-1.62,1.04-2.82,1.04-2.31,0-4.05-1.59-4.05-4.48s1.79-4.53,4.15-4.53Z" fill="#fff"/><path d="M267.99,115.09c-.01-.69-.31-1.28-1.18-1.28-.65,0-1.26.29-1.83.64l-.56-1.02c.72-.45,1.63-.85,2.67-.85,1.63,0,2.43,1,2.43,2.82v3.87h-1.25l-.12-.72h-.04c-.58.49-1.25.88-2.02.88-1.14,0-1.94-.77-1.94-1.91,0-1.4,1.17-2.13,3.84-2.42ZM266.57,118.22c.53,0,.94-.27,1.42-.72v-1.46c-1.77.23-2.35.69-2.35,1.34,0,.58.39.84.93.84Z" fill="#fff"/><path d="M271.38,109.88h1.53v7.79c0,.37.17.5.33.5.07,0,.12,0,.24-.03l.2,1.14c-.19.08-.45.13-.81.13-1.09,0-1.49-.7-1.49-1.83v-7.71Z" fill="#fff"/><path d="M274.98,109.88h1.53v7.79c0,.37.17.5.33.5.07,0,.12,0,.24-.03l.2,1.14c-.19.08-.45.13-.81.13-1.09,0-1.49-.7-1.49-1.83v-7.71Z" fill="#fff"/><path d="M281.16,112.58c1.77,0,2.7,1.28,2.7,3.1,0,.29-.03.56-.07.72h-4.15c.13,1.18.88,1.85,1.93,1.85.56,0,1.04-.17,1.52-.48l.52.96c-.62.41-1.41.7-2.23.7-1.81,0-3.22-1.26-3.22-3.42s1.48-3.43,3-3.43ZM282.53,115.42c0-1.04-.44-1.66-1.33-1.66-.77,0-1.44.57-1.57,1.66h2.9Z" fill="#fff"/><path d="M285.32,112.74h1.26l.11,1.16h.05c.47-.85,1.16-1.32,1.85-1.32.33,0,.54.04.74.13l-.27,1.33c-.23-.07-.4-.11-.68-.11-.52,0-1.14.36-1.54,1.34v3.99h-1.53v-6.53Z" fill="#fff"/><path d="M290.77,120.71c.69,0,1.09-.46,1.3-1.12l.12-.41-2.56-6.45h1.55l1.13,3.2c.19.57.37,1.22.57,1.83h.05c.16-.6.33-1.25.49-1.83l.98-3.2h1.48l-2.37,6.82c-.54,1.48-1.22,2.39-2.65,2.39-.36,0-.61-.05-.85-.13l.28-1.2c.12.04.31.09.46.09Z" fill="#fff"/><path d="M412.45,64.48h-2.35v-1.73h6.76v1.73h-2.35v6.92h-2.06v-6.92Z" fill="#fff"/><path d="M418.03,62.12h2.05v2.23l-.09,1.18c.49-.44,1.13-.89,2.03-.89,1.44,0,2.05,1.02,2.05,2.67v4.09h-2.06v-3.83c0-.92-.24-1.2-.77-1.2-.46,0-.74.23-1.16.6v4.43h-2.05v-9.29Z" fill="#fff"/><path d="M425.54,62.81c0-.64.48-1.05,1.16-1.05s1.16.41,1.16,1.05-.48,1.06-1.16,1.06-1.16-.41-1.16-1.06ZM425.68,64.8h2.05v6.61h-2.05v-6.61Z" fill="#fff"/><path d="M429.4,64.8h1.67l.15,1.14h.05c.48-.89,1.21-1.3,1.87-1.3.39,0,.61.04.8.13l-.39,1.74c-.24-.05-.39-.08-.68-.08-.49,0-1.09.32-1.44,1.2v3.77h-2.05v-6.61Z" fill="#fff"/><path d="M434.32,68.1c0-2.15,1.36-3.46,2.72-3.46.73,0,1.17.27,1.59.68l-.07-.98v-2.22h2.06v9.29h-1.69l-.15-.64h-.04c-.47.46-1.12.8-1.74.8-1.63,0-2.7-1.32-2.7-3.47ZM438.57,69.33v-2.63c-.32-.28-.7-.38-1.04-.38-.58,0-1.1.53-1.1,1.77s.43,1.79,1.13,1.79c.4,0,.7-.13,1.01-.54Z" fill="#fff"/><path d="M442.04,67.31h3.28v1.45h-3.28v-1.45Z" fill="#fff"/><path d="M446.73,64.8h1.67l.15.64h.05c.5-.46,1.17-.8,1.85-.8,1.59,0,2.58,1.32,2.58,3.35,0,2.27-1.34,3.58-2.76,3.58-.57,0-1.09-.24-1.55-.68l.07,1.02v1.91h-2.05v-9.02ZM450.92,68.02c0-1.16-.35-1.7-1.08-1.7-.39,0-.7.17-1.06.56v2.62c.33.29.68.39,1,.39.64,0,1.14-.52,1.14-1.86Z" fill="#fff"/><path d="M453.94,69.56c0-1.4,1.08-2.15,3.68-2.42-.05-.54-.33-.86-1.01-.86-.53,0-1.06.19-1.73.56l-.72-1.33c.86-.53,1.81-.86,2.84-.86,1.7,0,2.66.94,2.66,3.02v3.75h-1.67l-.15-.66h-.05c-.54.49-1.14.82-1.89.82-1.21,0-1.97-.9-1.97-2.01ZM457.62,69.45v-1.05c-1.32.17-1.71.53-1.71,1,0,.39.25.57.7.57.41,0,.69-.2,1.01-.52Z" fill="#fff"/><path d="M461.28,64.8h1.67l.15,1.14h.05c.48-.89,1.21-1.3,1.87-1.3.39,0,.61.04.8.13l-.39,1.74c-.24-.05-.39-.08-.68-.08-.49,0-1.09.32-1.44,1.2v3.77h-2.05v-6.61Z" fill="#fff"/><path d="M466.93,68.96v-2.55h-.89v-1.54l1.01-.07.24-2.02h1.7v2.02h1.55v1.61h-1.55v2.53c0,.74.35,1.02.84,1.02.21,0,.44-.03.61-.09l.32,1.44c-.35.13-.85.27-1.5.27-1.65,0-2.33-1.05-2.33-2.6Z" fill="#fff"/><path d="M471.67,73.8l.36-1.52c.21.05.31.07.44.07.64,0,.96-.33,1.12-.81l.09-.32-2.54-6.42h2.06l.9,2.74c.19.61.33,1.22.5,1.87h.05c.15-.62.28-1.25.45-1.87l.76-2.74h1.97l-2.27,6.62c-.65,1.7-1.36,2.54-2.94,2.54-.43,0-.69-.05-.96-.16Z" fill="#fff"/><path d="M483.25,62.75h2.47l2.7,8.65h-2.18l-.5-1.99h-2.57l-.5,1.99h-2.11l2.7-8.65ZM483.57,67.82h1.77l-.19-.74c-.23-.85-.45-1.87-.68-2.78h-.05c-.21.9-.44,1.93-.66,2.78l-.19.74Z" fill="#fff"/><path d="M489.15,64.8h1.67l.15.64h.05c.5-.46,1.17-.8,1.85-.8,1.59,0,2.58,1.32,2.58,3.35,0,2.27-1.34,3.58-2.76,3.58-.57,0-1.09-.24-1.55-.68l.07,1.02v1.91h-2.05v-9.02ZM493.34,68.02c0-1.16-.35-1.7-1.08-1.7-.39,0-.7.17-1.06.56v2.62c.33.29.68.39,1,.39.64,0,1.14-.52,1.14-1.86Z" fill="#fff"/><path d="M496.8,64.8h1.67l.15.64h.05c.5-.46,1.17-.8,1.85-.8,1.59,0,2.58,1.32,2.58,3.35,0,2.27-1.34,3.58-2.76,3.58-.57,0-1.09-.24-1.55-.68l.07,1.02v1.91h-2.05v-9.02ZM500.98,68.02c0-1.16-.34-1.7-1.08-1.7-.39,0-.7.17-1.06.56v2.62c.33.29.68.39,1,.39.64,0,1.14-.52,1.14-1.86Z" fill="#fff"/><path d="M503.8,70.57l.86-1.16c.61.48,1.21.64,1.73.64.56,0,.78-.2.78-.52,0-.4-.56-.57-1.26-.84-.94-.35-1.74-.94-1.74-1.97,0-1.25,1.01-2.09,2.55-2.09.97,0,1.79.36,2.37.84l-.88,1.16c-.48-.35-.97-.48-1.42-.48-.48,0-.7.19-.7.48,0,.35.37.5,1.21.77,1.01.32,1.81.92,1.81,2.01,0,1.21-.96,2.15-2.75,2.15-.88,0-1.89-.35-2.55-1Z" fill="#fff"/><path d="M414.14,83.86c0-1,.73-1.73,1.62-1.73s1.63.73,1.63,1.73-.73,1.73-1.63,1.73-1.62-.72-1.62-1.73Z" fill="#fff"/><path d="M425.01,85.19c.62.58,1.46.98,2.26.98.98,0,1.52-.44,1.52-1.12,0-.72-.56-.94-1.34-1.28l-1.2-.52c-.85-.36-1.75-1.04-1.75-2.31,0-1.38,1.22-2.45,2.92-2.45,1.01,0,1.99.43,2.67,1.1l-.78.98c-.56-.46-1.14-.74-1.89-.74-.82,0-1.37.38-1.37,1.02,0,.68.67.93,1.38,1.22l1.18.49c1.02.44,1.75,1.09,1.75,2.35,0,1.41-1.17,2.58-3.12,2.58-1.17,0-2.31-.46-3.14-1.28l.9-1.05Z" fill="#fff"/><path d="M434.49,80.67c1.63,0,3.11,1.25,3.11,3.43s-1.48,3.42-3.11,3.42-3.1-1.25-3.1-3.42,1.48-3.43,3.1-3.43ZM434.49,86.27c.96,0,1.54-.86,1.54-2.17s-.58-2.18-1.54-2.18-1.53.86-1.53,2.18.57,2.17,1.53,2.17Z" fill="#fff"/><path d="M441.96,80.67c.84,0,1.48.33,1.91.76l-.73.97c-.35-.31-.69-.48-1.1-.48-1.05,0-1.78.86-1.78,2.18s.72,2.17,1.74,2.17c.53,0,.98-.27,1.34-.56l.64.97c-.61.54-1.4.84-2.14.84-1.78,0-3.15-1.25-3.15-3.42s1.53-3.43,3.27-3.43Z" fill="#fff"/><path d="M445.09,78.83c0-.52.4-.88.94-.88s.94.36.94.88-.4.86-.94.86-.94-.36-.94-.86ZM445.26,80.83h1.53v6.53h-1.53v-6.53Z" fill="#fff"/><path d="M452.3,83.18c-.01-.69-.31-1.28-1.18-1.28-.65,0-1.26.29-1.83.64l-.56-1.02c.72-.45,1.63-.85,2.67-.85,1.63,0,2.43,1,2.43,2.82v3.87h-1.25l-.12-.72h-.04c-.58.49-1.25.88-2.02.88-1.14,0-1.94-.77-1.94-1.91,0-1.4,1.17-2.13,3.84-2.42ZM450.88,86.32c.53,0,.94-.27,1.42-.72v-1.46c-1.77.23-2.35.69-2.35,1.34,0,.58.39.84.93.84Z" fill="#fff"/><path d="M455.69,77.97h1.53v7.79c0,.37.17.5.33.5.07,0,.12,0,.24-.03l.2,1.14c-.19.08-.45.13-.81.13-1.09,0-1.49-.7-1.49-1.83v-7.71Z" fill="#fff"/><path d="M462.15,78.67h1.7l1.57,4.28.57,1.65h.05l.56-1.65,1.54-4.28h1.7v8.69h-1.45v-3.97c0-.81.12-1.97.2-2.76h-.05l-.71,1.98-1.5,3.95h-.72l-1.5-3.95-.69-1.98h-.05c.08.8.2,1.95.2,2.76v3.97h-1.42v-8.69Z" fill="#fff"/><path d="M474.5,80.67c1.77,0,2.7,1.28,2.7,3.1,0,.29-.03.56-.07.72h-4.15c.13,1.18.88,1.85,1.93,1.85.56,0,1.04-.17,1.51-.48l.52.96c-.62.41-1.41.7-2.23.7-1.81,0-3.22-1.26-3.22-3.42s1.48-3.43,3-3.43ZM475.87,83.52c0-1.04-.44-1.66-1.33-1.66-.77,0-1.44.57-1.57,1.66h2.9Z" fill="#fff"/><path d="M481.03,80.67c.74,0,1.21.28,1.71.72l-.05-1.05v-2.37h1.53v9.38h-1.26l-.11-.7h-.05c-.48.48-1.14.86-1.85.86-1.63,0-2.68-1.26-2.68-3.42s1.34-3.43,2.76-3.43ZM481.32,86.25c.51,0,.93-.23,1.37-.73v-3.04c-.45-.4-.89-.54-1.33-.54-.84,0-1.51.78-1.51,2.15s.53,2.17,1.47,2.17Z" fill="#fff"/><path d="M485.99,78.83c0-.52.4-.88.94-.88s.94.36.94.88-.4.86-.94.86-.94-.36-.94-.86ZM486.16,80.83h1.53v6.53h-1.53v-6.53Z" fill="#fff"/><path d="M493.21,83.18c-.01-.69-.31-1.28-1.18-1.28-.65,0-1.26.29-1.83.64l-.56-1.02c.72-.45,1.63-.85,2.67-.85,1.63,0,2.43,1,2.43,2.82v3.87h-1.25l-.12-.72h-.04c-.58.49-1.25.88-2.02.88-1.14,0-1.94-.77-1.94-1.91,0-1.4,1.17-2.13,3.84-2.42ZM491.78,86.32c.53,0,.94-.27,1.42-.72v-1.46c-1.77.23-2.35.69-2.35,1.34,0,.58.39.84.93.84Z" fill="#fff"/><path d="M430.66,99.81c0-1,.73-1.73,1.62-1.73s1.63.73,1.63,1.73-.73,1.73-1.63,1.73-1.62-.72-1.62-1.73Z" fill="#fff"/><path d="M444.93,94.46c1.2,0,2.05.54,2.59,1.1l-.85.96c-.44-.43-.92-.72-1.73-.72-1.54,0-2.58,1.2-2.58,3.15s.92,3.18,2.66,3.18c.49,0,.97-.13,1.25-.39v-1.87h-1.65v-1.26h3.03v3.83c-.6.58-1.62,1.04-2.82,1.04-2.31,0-4.05-1.59-4.05-4.48s1.79-4.53,4.15-4.53Z" fill="#fff"/><path d="M453.01,99.14c-.01-.69-.31-1.28-1.18-1.28-.65,0-1.26.29-1.83.64l-.56-1.02c.72-.45,1.63-.85,2.67-.85,1.63,0,2.43,1,2.43,2.82v3.87h-1.25l-.12-.72h-.04c-.58.49-1.25.88-2.02.88-1.14,0-1.94-.77-1.94-1.91,0-1.4,1.17-2.13,3.84-2.42ZM451.59,102.27c.53,0,.94-.27,1.42-.72v-1.46c-1.77.23-2.35.69-2.35,1.34,0,.58.39.84.93.84Z" fill="#fff"/><path d="M456.4,96.78h1.26l.11.89h.05c.54-.58,1.18-1.05,1.99-1.05.96,0,1.5.44,1.81,1.17.62-.66,1.28-1.17,2.1-1.17,1.38,0,2.02.94,2.02,2.59v4.09h-1.54v-3.89c0-1.08-.32-1.47-1-1.47-.41,0-.86.27-1.37.81v4.56h-1.53v-3.89c0-1.08-.32-1.47-1.01-1.47-.4,0-.86.27-1.37.81v4.56h-1.53v-6.53Z" fill="#fff"/><path d="M470.18,96.62c1.77,0,2.7,1.28,2.7,3.1,0,.29-.03.56-.07.72h-4.15c.13,1.18.88,1.85,1.93,1.85.56,0,1.04-.17,1.51-.48l.52.96c-.62.41-1.41.7-2.23.7-1.81,0-3.22-1.26-3.22-3.42s1.48-3.43,3-3.43ZM471.55,99.47c0-1.04-.44-1.66-1.33-1.66-.77,0-1.44.57-1.57,1.66h2.9Z" fill="#fff"/><path d="M474.41,101.58c.58.45,1.14.73,1.81.73.71,0,1.04-.33,1.04-.78,0-.54-.7-.78-1.4-1.05-.86-.32-1.83-.81-1.83-1.9s.92-1.95,2.38-1.95c.9,0,1.63.37,2.17.78l-.7.93c-.45-.33-.92-.56-1.44-.56-.65,0-.96.31-.96.72,0,.52.65.72,1.36.97.89.33,1.87.76,1.87,1.98,0,1.12-.89,2.02-2.54,2.02-.89,0-1.83-.38-2.47-.9l.72-.98Z" fill="#fff"/><path d="M414.77,115.77c0-1,.73-1.73,1.62-1.73s1.63.73,1.63,1.73-.73,1.73-1.63,1.73-1.62-.72-1.62-1.73Z" fill="#fff"/><path d="M425.35,110.57h2.92c1.9,0,3.31.67,3.31,2.69s-1.43,2.82-3.31,2.82h-1.38v3.19h-1.54v-8.69ZM428.15,114.84c1.29,0,1.91-.52,1.91-1.58s-.65-1.45-1.91-1.45h-1.26v3.03h1.26Z" fill="#fff"/><path d="M433.08,112.74h1.26l.11,1.16h.05c.46-.85,1.16-1.32,1.85-1.32.33,0,.54.04.75.13l-.27,1.33c-.23-.07-.4-.11-.68-.11-.52,0-1.14.36-1.54,1.34v3.99h-1.53v-6.53Z" fill="#fff"/><path d="M440.58,112.58c1.63,0,3.11,1.25,3.11,3.43s-1.48,3.42-3.11,3.42-3.1-1.25-3.1-3.42,1.48-3.43,3.1-3.43ZM440.58,118.17c.96,0,1.54-.86,1.54-2.17s-.58-2.18-1.54-2.18-1.53.86-1.53,2.18.57,2.17,1.53,2.17Z" fill="#fff"/><path d="M447.57,112.58c.74,0,1.21.28,1.71.72l-.05-1.05v-2.37h1.53v9.38h-1.26l-.11-.7h-.05c-.48.48-1.14.86-1.85.86-1.63,0-2.68-1.26-2.68-3.42s1.34-3.43,2.76-3.43ZM447.86,118.16c.51,0,.93-.23,1.37-.73v-3.04c-.45-.4-.89-.54-1.33-.54-.84,0-1.51.78-1.51,2.15s.53,2.17,1.47,2.17Z" fill="#fff"/><path d="M452.64,112.74h1.53v3.89c0,1.08.31,1.48,1.01,1.48.57,0,.96-.27,1.45-.9v-4.47h1.53v6.53h-1.25l-.12-.96h-.04c-.57.68-1.21,1.12-2.1,1.12-1.4,0-2.01-.94-2.01-2.59v-4.09Z" fill="#fff"/><path d="M462.94,112.58c.84,0,1.48.33,1.91.76l-.73.97c-.35-.31-.69-.48-1.1-.48-1.05,0-1.78.86-1.78,2.18s.72,2.17,1.74,2.17c.53,0,.98-.27,1.34-.56l.64.97c-.61.54-1.4.84-2.14.84-1.78,0-3.15-1.25-3.15-3.42s1.53-3.43,3.27-3.43Z" fill="#fff"/><path d="M466.46,113.94h-.93v-1.14l1.01-.07.19-1.78h1.28v1.78h1.66v1.21h-1.66v3.11c0,.77.29,1.14.92,1.14.23,0,.49-.07.68-.15l.27,1.13c-.36.12-.81.24-1.33.24-1.52,0-2.07-.96-2.07-2.37v-3.11Z" fill="#fff"/><path d="M470.86,110.73c0-.52.4-.88.94-.88s.94.36.94.88-.4.86-.94.86-.94-.36-.94-.86ZM471.03,112.74h1.53v6.53h-1.53v-6.53Z" fill="#fff"/><path d="M473.71,112.74h1.56l1.04,3.39c.17.64.37,1.3.54,1.97h.05c.19-.66.37-1.33.56-1.97l1.04-3.39h1.47l-2.22,6.53h-1.77l-2.27-6.53Z" fill="#fff"/><path d="M480.92,110.73c0-.52.4-.88.94-.88s.94.36.94.88-.4.86-.94.86-.94-.36-.94-.86ZM481.1,112.74h1.53v6.53h-1.53v-6.53Z" fill="#fff"/><path d="M484.81,113.94h-.93v-1.14l1.01-.07.19-1.78h1.28v1.78h1.66v1.21h-1.66v3.11c0,.77.29,1.14.92,1.14.23,0,.49-.07.68-.15l.27,1.13c-.36.12-.81.24-1.33.24-1.52,0-2.07-.96-2.07-2.37v-3.11Z" fill="#fff"/><path d="M489.71,120.71c.69,0,1.09-.46,1.3-1.12l.12-.41-2.57-6.45h1.56l1.13,3.2c.19.57.37,1.22.57,1.83h.05c.16-.6.33-1.25.49-1.83l.98-3.2h1.47l-2.37,6.82c-.54,1.48-1.22,2.39-2.64,2.39-.36,0-.61-.05-.85-.13l.28-1.2c.12.04.31.09.47.09Z" fill="#fff"/><rect x="210.68" y="410.32" width="144.54" height="47.68" rx="7.42" ry="7.42" fill="#1c2538"/><rect x="379.97" y="410.32" width="144.54" height="47.68" rx="7.42" ry="7.42" fill="#1c2538"/><path d="M235.39,422.85h2.47l2.7,8.65h-2.18l-.5-1.99h-2.57l-.5,1.99h-2.11l2.7-8.65ZM235.71,427.92h1.77l-.19-.74c-.23-.85-.45-1.87-.68-2.78h-.05c-.21.9-.44,1.93-.66,2.78l-.19.74Z" fill="#fff"/><path d="M241.29,424.9h1.67l.15.82h.05c.54-.53,1.21-.98,2.11-.98,1.44,0,2.05,1.02,2.05,2.67v4.09h-2.06v-3.83c0-.92-.24-1.2-.77-1.2-.46,0-.74.23-1.16.6v4.43h-2.05v-6.61Z" fill="#fff"/><path d="M248.6,428.19c0-2.15,1.36-3.46,2.72-3.46.73,0,1.17.27,1.59.68l-.07-.98v-2.22h2.06v9.29h-1.69l-.15-.64h-.04c-.46.46-1.12.8-1.74.8-1.63,0-2.7-1.32-2.7-3.47ZM252.85,429.43v-2.63c-.32-.28-.7-.38-1.04-.38-.58,0-1.1.53-1.1,1.77s.43,1.79,1.13,1.79c.4,0,.7-.13,1.01-.54Z" fill="#fff"/><path d="M256.58,424.9h1.67l.15,1.14h.05c.48-.89,1.21-1.3,1.87-1.3.39,0,.61.04.8.13l-.39,1.74c-.24-.05-.39-.08-.68-.08-.49,0-1.09.32-1.44,1.2v3.77h-2.05v-6.61Z" fill="#fff"/><path d="M261.45,428.19c0-2.19,1.55-3.46,3.23-3.46s3.24,1.26,3.24,3.46-1.55,3.47-3.24,3.47-3.23-1.28-3.23-3.47ZM265.81,428.19c0-1.09-.36-1.81-1.13-1.81s-1.13.72-1.13,1.81.36,1.81,1.13,1.81,1.13-.7,1.13-1.81Z" fill="#fff"/><path d="M269.1,422.91c0-.64.48-1.05,1.16-1.05s1.16.41,1.16,1.05-.48,1.06-1.16,1.06-1.16-.41-1.16-1.06ZM269.23,424.9h2.05v6.61h-2.05v-6.61Z" fill="#fff"/><path d="M272.62,428.19c0-2.15,1.36-3.46,2.72-3.46.73,0,1.17.27,1.59.68l-.07-.98v-2.22h2.06v9.29h-1.69l-.15-.64h-.04c-.46.46-1.12.8-1.74.8-1.63,0-2.7-1.32-2.7-3.47ZM276.87,429.43v-2.63c-.32-.28-.7-.38-1.04-.38-.58,0-1.1.53-1.1,1.77s.43,1.79,1.13,1.79c.4,0,.7-.13,1.01-.54Z" fill="#fff"/><path d="M283.41,422.85h3.18c1.83,0,3.38.64,3.38,2.72,0,1.26-.6,2.07-1.49,2.5l1.93,3.43h-2.31l-1.59-3.04h-1.01v3.04h-2.07v-8.65ZM286.43,426.83c.98,0,1.52-.42,1.52-1.25s-.53-1.09-1.52-1.09h-.94v2.34h.94Z" fill="#fff"/><path d="M291.4,428.99v-4.09h2.06v3.83c0,.92.24,1.18.77,1.18.47,0,.74-.19,1.1-.68v-4.33h2.06v6.61h-1.67l-.15-.9h-.05c-.54.65-1.17,1.06-2.06,1.06-1.45,0-2.06-1.02-2.06-2.67Z" fill="#fff"/><path d="M299.07,424.9h1.67l.15.82h.05c.54-.53,1.21-.98,2.11-.98,1.44,0,2.05,1.02,2.05,2.67v4.09h-2.06v-3.83c0-.92-.24-1.2-.77-1.2-.46,0-.74.23-1.16.6v4.43h-2.05v-6.61Z" fill="#fff"/><path d="M306.98,429.06v-2.55h-.89v-1.54l1.01-.07.24-2.02h1.7v2.02h1.56v1.61h-1.56v2.53c0,.74.35,1.02.84,1.02.21,0,.44-.03.61-.09l.32,1.44c-.35.13-.85.27-1.5.27-1.65,0-2.33-1.05-2.33-2.6Z" fill="#fff"/><path d="M311.74,422.91c0-.64.48-1.05,1.16-1.05s1.16.41,1.16,1.05-.48,1.06-1.16,1.06-1.16-.41-1.16-1.06ZM311.88,424.9h2.05v6.61h-2.05v-6.61Z" fill="#fff"/><path d="M315.6,424.9h1.67l.15.82h.05c.53-.53,1.12-.98,1.99-.98s1.49.38,1.82,1.09c.57-.58,1.18-1.09,2.06-1.09,1.44,0,2.07,1.02,2.07,2.67v4.09h-2.05v-3.83c0-.92-.25-1.2-.77-1.2-.32,0-.66.2-1.06.6v4.43h-2.06v-3.83c0-.92-.24-1.2-.77-1.2-.31,0-.66.2-1.06.6v4.43h-2.05v-6.61Z" fill="#fff"/><path d="M326.67,428.19c0-2.14,1.54-3.46,3.12-3.46,1.91,0,2.84,1.38,2.84,3.18,0,.37-.04.72-.08.9h-3.89c.19.89.81,1.28,1.65,1.28.48,0,.96-.15,1.42-.41l.66,1.24c-.69.49-1.59.74-2.38.74-1.89,0-3.35-1.26-3.35-3.47ZM330.88,427.44c0-.65-.29-1.14-1.04-1.14-.58,0-1.08.37-1.21,1.14h2.25Z" fill="#fff"/><path d="M267.74,443.76c0-2.34.64-4.25,1.75-6.07l1.29.53c-.97,1.71-1.4,3.67-1.4,5.54s.43,3.83,1.4,5.54l-1.29.53c-1.12-1.82-1.75-3.73-1.75-6.07Z" fill="#fff"/><path d="M274.02,438.8h2.47l2.7,8.65h-2.18l-.5-1.99h-2.57l-.5,1.99h-2.11l2.7-8.65ZM274.34,443.87h1.77l-.19-.74c-.23-.85-.45-1.87-.68-2.78h-.05c-.21.9-.44,1.93-.66,2.78l-.19.74Z" fill="#fff"/><path d="M280.08,438.8h3.18c1.83,0,3.38.64,3.38,2.72,0,1.26-.6,2.07-1.49,2.5l1.93,3.43h-2.31l-1.59-3.04h-1.01v3.04h-2.07v-8.65ZM283.1,442.78c.98,0,1.52-.43,1.52-1.25s-.53-1.09-1.52-1.09h-.94v2.34h.94Z" fill="#fff"/><path d="M289.74,440.53h-2.35v-1.73h6.77v1.73h-2.35v6.92h-2.06v-6.92Z" fill="#fff"/><path d="M295.13,449.3c.97-1.71,1.4-3.67,1.4-5.54s-.43-3.83-1.4-5.54l1.3-.53c1.1,1.82,1.75,3.73,1.75,6.07s-.65,4.25-1.75,6.07l-1.3-.53Z" fill="#fff"/><path d="M411.7,434.4c0-2.88,1.94-4.54,4.12-4.54,1.13,0,2.03.5,2.63,1.13l-1.09,1.25c-.42-.4-.88-.6-1.49-.6-1.14,0-2.06,1.01-2.06,2.68s.81,2.72,2.02,2.72c.7,0,1.25-.28,1.66-.72l1.08,1.22c-.76.86-1.71,1.28-2.8,1.28-2.21,0-4.07-1.5-4.07-4.43Z" fill="#fff"/><path d="M419.32,435.36c0-2.19,1.56-3.46,3.23-3.46s3.24,1.26,3.24,3.46-1.55,3.47-3.24,3.47-3.23-1.28-3.23-3.47ZM423.68,435.36c0-1.09-.36-1.81-1.13-1.81s-1.13.72-1.13,1.81.36,1.81,1.13,1.81,1.13-.7,1.13-1.81Z" fill="#fff"/><path d="M427.09,432.06h1.67l.15,1.14h.05c.48-.89,1.21-1.3,1.87-1.3.39,0,.61.04.8.13l-.39,1.74c-.24-.05-.39-.08-.68-.08-.49,0-1.09.32-1.44,1.2v3.77h-2.05v-6.61Z" fill="#fff"/><path d="M431.97,435.36c0-2.14,1.54-3.46,3.12-3.46,1.91,0,2.84,1.38,2.84,3.18,0,.37-.04.72-.08.9h-3.89c.19.89.81,1.28,1.65,1.28.48,0,.96-.15,1.42-.41l.67,1.24c-.69.49-1.59.74-2.38.74-1.89,0-3.35-1.26-3.35-3.47ZM436.19,434.6c0-.65-.29-1.14-1.04-1.14-.58,0-1.08.37-1.21,1.14h2.25Z" fill="#fff"/><path d="M442.08,430.01h2.07v6.92h3.36v1.73h-5.44v-8.65Z" fill="#fff"/><path d="M448.72,430.07c0-.64.48-1.05,1.16-1.05s1.16.41,1.16,1.05-.48,1.06-1.16,1.06-1.16-.41-1.16-1.06ZM448.86,432.06h2.05v6.61h-2.05v-6.61Z" fill="#fff"/><path d="M454.4,437.96h-.05l-.16.7h-1.61v-9.29h2.05v2.23l-.04,1c.49-.44,1.09-.7,1.7-.7,1.6,0,2.59,1.32,2.59,3.35,0,2.27-1.34,3.58-2.76,3.58-.6,0-1.2-.29-1.71-.86ZM456.76,435.28c0-1.16-.35-1.7-1.08-1.7-.39,0-.7.17-1.06.56v2.62c.33.29.68.39,1,.39.64,0,1.14-.52,1.14-1.86Z" fill="#fff"/><path d="M460.22,432.06h1.67l.15,1.14h.05c.48-.89,1.21-1.3,1.87-1.3.39,0,.61.04.8.13l-.39,1.74c-.24-.05-.39-.08-.68-.08-.49,0-1.09.32-1.44,1.2v3.77h-2.05v-6.61Z" fill="#fff"/><path d="M464.93,436.82c0-1.4,1.08-2.15,3.68-2.42-.05-.54-.33-.86-1.01-.86-.53,0-1.06.19-1.73.56l-.72-1.33c.86-.53,1.81-.86,2.84-.86,1.7,0,2.66.94,2.66,3.02v3.75h-1.67l-.15-.66h-.05c-.54.49-1.14.82-1.89.82-1.21,0-1.97-.9-1.97-2.01ZM468.61,436.71v-1.05c-1.32.17-1.71.53-1.71,1,0,.39.25.57.7.57.41,0,.69-.2,1.01-.52Z" fill="#fff"/><path d="M472.26,432.06h1.67l.15,1.14h.05c.48-.89,1.21-1.3,1.87-1.3.39,0,.61.04.8.13l-.39,1.74c-.24-.05-.39-.08-.68-.08-.49,0-1.09.32-1.44,1.2v3.77h-2.05v-6.61Z" fill="#fff"/><path d="M477.52,430.07c0-.64.48-1.05,1.16-1.05s1.16.41,1.16,1.05-.48,1.06-1.16,1.06-1.16-.41-1.16-1.06ZM477.65,432.06h2.05v6.61h-2.05v-6.61Z" fill="#fff"/><path d="M481,435.36c0-2.14,1.54-3.46,3.12-3.46,1.91,0,2.84,1.38,2.84,3.18,0,.37-.04.72-.08.9h-3.89c.19.89.81,1.28,1.65,1.28.48,0,.96-.15,1.42-.41l.66,1.24c-.69.49-1.59.74-2.38.74-1.89,0-3.35-1.26-3.35-3.47ZM485.21,434.6c0-.65-.29-1.14-1.04-1.14-.58,0-1.08.37-1.21,1.14h2.25Z" fill="#fff"/><path d="M487.71,437.83l.86-1.16c.61.48,1.21.64,1.73.64.56,0,.78-.2.78-.52,0-.4-.56-.57-1.26-.84-.94-.35-1.74-.94-1.74-1.97,0-1.25,1.01-2.09,2.55-2.09.97,0,1.79.36,2.37.84l-.88,1.16c-.48-.35-.97-.48-1.42-.48-.48,0-.7.19-.7.48,0,.35.37.5,1.21.77,1.01.32,1.81.92,1.81,2.01,0,1.21-.96,2.15-2.75,2.15-.88,0-1.89-.35-2.55-1Z" fill="#fff"/><rect x="210.68" y="246.13" width="144.54" height="47.68" rx="7.42" ry="7.42" fill="#1c2538"/><rect x="379.97" y="246.13" width="144.54" height="47.68" rx="7.42" ry="7.42" fill="#1c2538"/><rect x="549.25" y="246.13" width="144.54" height="47.68" rx="7.42" ry="7.42" fill="#1c2538"/><rect x="41.4" y="246.13" width="144.54" height="47.68" rx="7.42" ry="7.42" fill="#1c2538"/><path d="M222.1,265.82h2.14l2.13,4.15c.31.58.58,1.28.85,1.95h.05c-.11-.93-.27-2.17-.27-3.19v-2.91h1.95v8.65h-2.13l-2.14-4.15c-.29-.58-.57-1.28-.84-1.95h-.05c.11.96.27,2.15.27,3.19v2.91h-1.97v-8.65Z" fill="#fff"/><path d="M230.44,271.17c0-2.19,1.55-3.46,3.23-3.46s3.24,1.26,3.24,3.46-1.55,3.47-3.24,3.47-3.23-1.28-3.23-3.47ZM234.79,271.17c0-1.09-.36-1.81-1.13-1.81s-1.13.72-1.13,1.81.36,1.81,1.13,1.81,1.13-.7,1.13-1.81Z" fill="#fff"/><path d="M238.11,272.03v-2.55h-.89v-1.54l1.01-.07.24-2.02h1.7v2.02h1.56v1.61h-1.56v2.53c0,.74.35,1.02.84,1.02.21,0,.44-.03.61-.09l.32,1.44c-.35.13-.85.27-1.5.27-1.65,0-2.33-1.05-2.33-2.6Z" fill="#fff"/><path d="M242.86,265.88c0-.64.48-1.05,1.16-1.05s1.16.41,1.16,1.05-.48,1.06-1.16,1.06-1.16-.41-1.16-1.06ZM243,267.87h2.05v6.61h-2.05v-6.61Z" fill="#fff"/><path d="M247.06,269.48h-.88v-1.54l.88-.05v-.28c0-1.4.65-2.58,2.5-2.58.57,0,1.05.12,1.34.24l-.39,1.46c-.23-.07-.44-.09-.66-.09-.45,0-.73.25-.73.9v.33h1.17v1.61h-1.17v5h-2.06v-5Z" fill="#fff"/><path d="M251.2,265.88c0-.64.48-1.05,1.16-1.05s1.16.41,1.16,1.05-.48,1.06-1.16,1.06-1.16-.41-1.16-1.06ZM251.33,267.87h2.05v6.61h-2.05v-6.61Z" fill="#fff"/><path d="M254.68,271.17c0-2.19,1.63-3.46,3.47-3.46.81,0,1.44.28,1.93.7l-.96,1.26c-.31-.23-.56-.32-.85-.32-.92,0-1.49.72-1.49,1.81s.61,1.81,1.42,1.81c.44,0,.81-.16,1.14-.41l.8,1.29c-.64.58-1.48.78-2.18.78-1.86,0-3.28-1.28-3.28-3.47Z" fill="#fff"/><path d="M260.86,272.63c0-1.4,1.08-2.15,3.68-2.42-.05-.54-.33-.86-1.01-.86-.53,0-1.06.19-1.73.56l-.72-1.33c.86-.53,1.81-.86,2.84-.86,1.7,0,2.66.94,2.66,3.02v3.75h-1.67l-.15-.66h-.05c-.54.49-1.14.82-1.89.82-1.21,0-1.97-.9-1.97-2.01ZM264.54,272.52v-1.05c-1.32.17-1.71.53-1.71,1,0,.39.25.57.7.57.41,0,.69-.2,1.01-.52Z" fill="#fff"/><path d="M268.21,272.03v-2.55h-.89v-1.54l1.01-.07.24-2.02h1.7v2.02h1.56v1.61h-1.56v2.53c0,.74.35,1.02.84,1.02.21,0,.44-.03.61-.09l.32,1.44c-.35.13-.85.27-1.5.27-1.65,0-2.33-1.05-2.33-2.6Z" fill="#fff"/><path d="M272.97,265.88c0-.64.48-1.05,1.16-1.05s1.16.41,1.16,1.05-.48,1.06-1.16,1.06-1.16-.41-1.16-1.06ZM273.11,267.87h2.05v6.61h-2.05v-6.61Z" fill="#fff"/><path d="M276.46,271.17c0-2.19,1.55-3.46,3.23-3.46s3.24,1.26,3.24,3.46-1.55,3.47-3.24,3.47-3.23-1.28-3.23-3.47ZM280.81,271.17c0-1.09-.36-1.81-1.13-1.81s-1.13.72-1.13,1.81.36,1.81,1.13,1.81,1.13-.7,1.13-1.81Z" fill="#fff"/><path d="M284.23,267.87h1.67l.15.82h.05c.54-.53,1.21-.98,2.11-.98,1.44,0,2.05,1.02,2.05,2.67v4.09h-2.06v-3.83c0-.92-.24-1.2-.77-1.2-.46,0-.74.23-1.16.6v4.43h-2.05v-6.61Z" fill="#fff"/><path d="M294.69,265.82h2.26l1.37,3.76c.16.5.31,1.02.47,1.57h.05c.16-.54.29-1.06.46-1.57l1.32-3.76h2.26v8.65h-1.87v-3c0-.85.17-2.33.28-3.18h-.05l-.72,2.26-1.17,3.19h-1.17l-1.16-3.19-.69-2.26h-.05c.11.85.28,2.33.28,3.18v3h-1.86v-8.65Z" fill="#fff"/><path d="M304.42,272.63c0-1.4,1.08-2.15,3.68-2.42-.05-.54-.33-.86-1.01-.86-.53,0-1.06.19-1.73.56l-.72-1.33c.86-.53,1.81-.86,2.84-.86,1.7,0,2.66.94,2.66,3.02v3.75h-1.67l-.15-.66h-.05c-.54.49-1.14.82-1.89.82-1.21,0-1.97-.9-1.97-2.01ZM308.11,272.52v-1.05c-1.32.17-1.71.53-1.71,1,0,.39.25.57.7.57.41,0,.69-.2,1.01-.52Z" fill="#fff"/><path d="M311.76,267.87h1.67l.15.82h.05c.54-.53,1.21-.98,2.11-.98,1.44,0,2.05,1.02,2.05,2.67v4.09h-2.06v-3.83c0-.92-.24-1.2-.77-1.2-.46,0-.74.23-1.16.6v4.43h-2.05v-6.61Z" fill="#fff"/><path d="M319.11,272.63c0-1.4,1.08-2.15,3.68-2.42-.05-.54-.33-.86-1.01-.86-.53,0-1.06.19-1.73.56l-.72-1.33c.86-.53,1.81-.86,2.84-.86,1.7,0,2.66.94,2.66,3.02v3.75h-1.67l-.15-.66h-.05c-.54.49-1.14.82-1.89.82-1.21,0-1.97-.9-1.97-2.01ZM322.8,272.52v-1.05c-1.32.17-1.71.53-1.71,1,0,.39.25.57.7.57.41,0,.69-.2,1.01-.52Z" fill="#fff"/><path d="M326.05,275.59c0-.54.32-.98.93-1.3v-.05c-.35-.24-.6-.58-.6-1.13,0-.46.31-.94.73-1.25v-.05c-.47-.32-.89-.93-.89-1.7,0-1.61,1.33-2.39,2.76-2.39.37,0,.73.05,1.04.16h2.43v1.49h-1.04c.11.19.2.49.2.81,0,1.54-1.17,2.22-2.63,2.22-.23,0-.49-.04-.78-.12-.15.13-.21.24-.21.45,0,.32.27.46.97.46h1.05c1.63,0,2.55.49,2.55,1.69,0,1.4-1.45,2.38-3.75,2.38-1.53,0-2.76-.48-2.76-1.66ZM330.6,275.23c0-.4-.35-.48-.97-.48h-.64c-.48,0-.73-.03-.93-.08-.21.19-.32.37-.32.58,0,.48.56.72,1.41.72s1.45-.32,1.45-.74ZM329.83,270.1c0-.68-.35-1.02-.84-1.02s-.84.34-.84,1.02.36,1.05.84,1.05.84-.36.84-1.05Z" fill="#fff"/><path d="M332.98,271.17c0-2.14,1.54-3.46,3.12-3.46,1.91,0,2.84,1.38,2.84,3.18,0,.37-.04.72-.08.9h-3.89c.19.89.81,1.28,1.65,1.28.48,0,.96-.15,1.42-.41l.66,1.24c-.69.49-1.59.74-2.38.74-1.89,0-3.35-1.26-3.35-3.47ZM337.19,270.41c0-.65-.29-1.14-1.04-1.14-.58,0-1.08.37-1.21,1.14h2.25Z" fill="#fff"/><path d="M340.26,267.87h1.67l.15,1.14h.05c.48-.89,1.21-1.3,1.87-1.3.39,0,.61.04.8.13l-.39,1.74c-.24-.05-.39-.08-.68-.08-.49,0-1.09.32-1.44,1.2v3.77h-2.05v-6.61Z" fill="#fff"/><path d="M401.89,265.82h3.04c1.9,0,3.46.68,3.46,2.8s-1.58,2.98-3.4,2.98h-1.02v2.87h-2.07v-8.65ZM404.87,269.97c1.02,0,1.5-.48,1.5-1.34s-.54-1.17-1.55-1.17h-.85v2.51h.9Z" fill="#fff"/><path d="M408.99,272.63c0-1.4,1.08-2.15,3.68-2.42-.05-.54-.33-.86-1.01-.86-.53,0-1.06.19-1.73.56l-.72-1.33c.86-.53,1.81-.86,2.84-.86,1.7,0,2.66.94,2.66,3.02v3.75h-1.67l-.15-.66h-.05c-.54.49-1.14.82-1.89.82-1.21,0-1.97-.9-1.97-2.01ZM412.67,272.52v-1.05c-1.32.17-1.71.53-1.71,1,0,.39.25.57.7.57.41,0,.69-.2,1.01-.52Z" fill="#fff"/><path d="M415.96,271.17c0-2.19,1.63-3.46,3.47-3.46.81,0,1.44.28,1.93.7l-.96,1.26c-.31-.23-.56-.32-.85-.32-.92,0-1.49.72-1.49,1.81s.61,1.81,1.42,1.81c.44,0,.81-.16,1.14-.41l.8,1.29c-.64.58-1.48.78-2.18.78-1.86,0-3.28-1.28-3.28-3.47Z" fill="#fff"/><path d="M422.56,265.18h2.03v5.18h.04l1.97-2.5h2.26l-2.3,2.75,2.46,3.85h-2.23l-1.44-2.51-.76.88v1.63h-2.03v-9.29Z" fill="#fff"/><path d="M429.5,272.63c0-1.4,1.08-2.15,3.68-2.42-.05-.54-.33-.86-1.01-.86-.53,0-1.06.19-1.73.56l-.72-1.33c.86-.53,1.81-.86,2.84-.86,1.7,0,2.66.94,2.66,3.02v3.75h-1.67l-.15-.66h-.05c-.54.49-1.14.82-1.89.82-1.21,0-1.97-.9-1.97-2.01ZM433.18,272.52v-1.05c-1.32.17-1.71.53-1.71,1,0,.39.25.57.7.57.41,0,.69-.2,1.01-.52Z" fill="#fff"/><path d="M436.44,275.59c0-.54.32-.98.93-1.3v-.05c-.35-.24-.6-.58-.6-1.13,0-.46.31-.94.73-1.25v-.05c-.46-.32-.89-.93-.89-1.7,0-1.61,1.33-2.39,2.76-2.39.37,0,.73.05,1.04.16h2.43v1.49h-1.04c.11.19.2.49.2.81,0,1.54-1.17,2.22-2.63,2.22-.23,0-.49-.04-.78-.12-.15.13-.21.24-.21.45,0,.32.27.46.97.46h1.05c1.63,0,2.55.49,2.55,1.69,0,1.4-1.45,2.38-3.75,2.38-1.53,0-2.76-.48-2.76-1.66ZM440.99,275.23c0-.4-.35-.48-.97-.48h-.64c-.48,0-.73-.03-.93-.08-.21.19-.32.37-.32.58,0,.48.56.72,1.41.72s1.45-.32,1.45-.74ZM440.22,270.1c0-.68-.35-1.02-.84-1.02s-.84.34-.84,1.02.36,1.05.84,1.05.84-.36.84-1.05Z" fill="#fff"/><path d="M443.37,271.17c0-2.14,1.54-3.46,3.12-3.46,1.91,0,2.84,1.38,2.84,3.18,0,.37-.04.72-.08.9h-3.89c.19.89.81,1.28,1.65,1.28.48,0,.96-.15,1.42-.41l.66,1.24c-.69.49-1.59.74-2.38.74-1.89,0-3.35-1.26-3.35-3.47ZM447.58,270.41c0-.65-.29-1.14-1.04-1.14-.58,0-1.08.37-1.21,1.14h2.25Z" fill="#fff"/><path d="M453.47,265.82h2.26l1.37,3.76c.16.5.31,1.02.46,1.57h.05c.16-.54.29-1.06.46-1.57l1.32-3.76h2.26v8.65h-1.87v-3c0-.85.17-2.33.28-3.18h-.05l-.72,2.26-1.17,3.19h-1.17l-1.16-3.19-.69-2.26h-.05c.11.85.28,2.33.28,3.18v3h-1.86v-8.65Z" fill="#fff"/><path d="M463.2,272.63c0-1.4,1.08-2.15,3.68-2.42-.05-.54-.33-.86-1.01-.86-.53,0-1.06.19-1.73.56l-.72-1.33c.86-.53,1.81-.86,2.84-.86,1.7,0,2.66.94,2.66,3.02v3.75h-1.67l-.15-.66h-.05c-.54.49-1.14.82-1.89.82-1.21,0-1.97-.9-1.97-2.01ZM466.88,272.52v-1.05c-1.32.17-1.71.53-1.71,1,0,.39.25.57.7.57.41,0,.69-.2,1.01-.52Z" fill="#fff"/><path d="M470.54,267.87h1.67l.15.82h.05c.54-.53,1.21-.98,2.11-.98,1.44,0,2.05,1.02,2.05,2.67v4.09h-2.06v-3.83c0-.92-.24-1.2-.77-1.2-.46,0-.74.23-1.16.6v4.43h-2.05v-6.61Z" fill="#fff"/><path d="M477.89,272.63c0-1.4,1.08-2.15,3.68-2.42-.05-.54-.33-.86-1.01-.86-.53,0-1.06.19-1.73.56l-.72-1.33c.86-.53,1.81-.86,2.84-.86,1.7,0,2.66.94,2.66,3.02v3.75h-1.67l-.15-.66h-.05c-.54.49-1.14.82-1.89.82-1.21,0-1.97-.9-1.97-2.01ZM481.57,272.52v-1.05c-1.32.17-1.71.53-1.71,1,0,.39.25.57.7.57.41,0,.69-.2,1.01-.52Z" fill="#fff"/><path d="M484.83,275.59c0-.54.32-.98.93-1.3v-.05c-.35-.24-.6-.58-.6-1.13,0-.46.31-.94.73-1.25v-.05c-.46-.32-.89-.93-.89-1.7,0-1.61,1.33-2.39,2.76-2.39.37,0,.73.05,1.04.16h2.43v1.49h-1.04c.11.19.2.49.2.81,0,1.54-1.17,2.22-2.63,2.22-.23,0-.49-.04-.78-.12-.15.13-.21.24-.21.45,0,.32.27.46.97.46h1.05c1.63,0,2.55.49,2.55,1.69,0,1.4-1.45,2.38-3.75,2.38-1.53,0-2.76-.48-2.76-1.66ZM489.37,275.23c0-.4-.35-.48-.97-.48h-.64c-.48,0-.73-.03-.93-.08-.21.19-.32.37-.32.58,0,.48.56.72,1.41.72s1.45-.32,1.45-.74ZM488.6,270.1c0-.68-.35-1.02-.84-1.02s-.84.34-.84,1.02.36,1.05.84,1.05.84-.36.84-1.05Z" fill="#fff"/><path d="M491.75,271.17c0-2.14,1.54-3.46,3.12-3.46,1.91,0,2.84,1.38,2.84,3.18,0,.37-.04.72-.08.9h-3.89c.19.89.81,1.28,1.65,1.28.48,0,.96-.15,1.42-.41l.67,1.24c-.69.49-1.59.74-2.38.74-1.89,0-3.35-1.26-3.35-3.47ZM495.97,270.41c0-.65-.29-1.14-1.04-1.14-.58,0-1.08.37-1.21,1.14h2.25Z" fill="#fff"/><path d="M499.04,267.87h1.67l.15,1.14h.05c.48-.89,1.21-1.3,1.87-1.3.39,0,.61.04.8.13l-.39,1.74c-.24-.05-.39-.08-.68-.08-.49,0-1.09.32-1.44,1.2v3.77h-2.05v-6.61Z" fill="#fff"/><path d="M584.21,265.82h2.18l.94,3.95c.24.94.43,1.82.68,2.76h.05c.25-.94.44-1.82.68-2.76l1.04-3.95h2.1l-2.65,8.65h-2.48l-2.54-8.65Z" fill="#fff"/><path d="M592.48,265.88c0-.64.48-1.05,1.16-1.05s1.16.41,1.16,1.05-.48,1.06-1.16,1.06-1.16-.41-1.16-1.06ZM592.61,267.87h2.05v6.61h-2.05v-6.61Z" fill="#fff"/><path d="M595.96,271.17c0-2.14,1.54-3.46,3.12-3.46,1.91,0,2.84,1.38,2.84,3.18,0,.37-.04.72-.08.9h-3.89c.19.89.81,1.28,1.65,1.28.48,0,.96-.15,1.42-.41l.66,1.24c-.69.49-1.59.74-2.38.74-1.89,0-3.35-1.26-3.35-3.47ZM600.17,270.41c0-.65-.29-1.14-1.04-1.14-.58,0-1.08.37-1.21,1.14h2.25Z" fill="#fff"/><path d="M602.64,267.87h2.03l.6,2.98c.11.64.19,1.28.28,1.99h.05c.12-.72.23-1.37.37-1.99l.68-2.98h1.82l.7,2.98c.15.64.27,1.28.39,1.99h.05c.12-.72.17-1.36.29-1.99l.58-2.98h1.9l-1.55,6.61h-2.45l-.53-2.54c-.12-.61-.23-1.2-.33-1.95h-.05c-.11.76-.19,1.34-.31,1.95l-.52,2.54h-2.38l-1.63-6.61Z" fill="#fff"/><path d="M615.82,273.37l1.09-1.34c.61.53,1.45.82,2.18.82.78,0,1.14-.29,1.14-.76,0-.5-.46-.67-1.22-.97l-1.1-.48c-.92-.36-1.75-1.12-1.75-2.37,0-1.45,1.3-2.62,3.14-2.62,1.04,0,2.06.39,2.8,1.08l-1.08,1.34c-.58-.41-1.18-.64-1.73-.64-.64,0-1.05.25-1.05.7,0,.5.54.68,1.32.98l1.08.44c1.08.43,1.71,1.14,1.71,2.35,0,1.45-1.21,2.71-3.3,2.71-1.17,0-2.33-.4-3.23-1.26Z" fill="#fff"/><path d="M623.48,276.87l.36-1.52c.21.05.31.07.44.07.64,0,.96-.33,1.12-.81l.09-.32-2.54-6.42h2.06l.9,2.74c.19.61.33,1.22.5,1.87h.05c.15-.62.28-1.25.45-1.87l.76-2.74h1.97l-2.27,6.62c-.65,1.7-1.36,2.54-2.94,2.54-.43,0-.69-.05-.96-.16Z" fill="#fff"/><path d="M630.07,273.64l.86-1.16c.61.48,1.21.64,1.73.64.56,0,.78-.2.78-.52,0-.4-.56-.57-1.26-.84-.94-.35-1.74-.94-1.74-1.97,0-1.25,1.01-2.09,2.55-2.09.97,0,1.79.36,2.37.84l-.88,1.16c-.48-.35-.97-.48-1.42-.48-.48,0-.7.19-.7.48,0,.35.37.5,1.21.77,1.01.32,1.81.92,1.81,2.01,0,1.21-.96,2.15-2.75,2.15-.88,0-1.89-.35-2.55-1Z" fill="#fff"/><path d="M636.57,272.03v-2.55h-.89v-1.54l1.01-.07.24-2.02h1.7v2.02h1.55v1.61h-1.55v2.53c0,.74.35,1.02.84,1.02.21,0,.44-.03.61-.09l.32,1.44c-.35.13-.85.27-1.5.27-1.65,0-2.33-1.05-2.33-2.6Z" fill="#fff"/><path d="M640.84,271.17c0-2.14,1.54-3.46,3.12-3.46,1.91,0,2.84,1.38,2.84,3.18,0,.37-.04.72-.08.9h-3.89c.19.89.81,1.28,1.65,1.28.48,0,.96-.15,1.42-.41l.67,1.24c-.69.49-1.59.74-2.38.74-1.89,0-3.35-1.26-3.35-3.47ZM645.05,270.41c0-.65-.29-1.14-1.04-1.14-.58,0-1.08.37-1.21,1.14h2.25Z" fill="#fff"/><path d="M648.12,267.87h1.67l.15.82h.05c.53-.53,1.12-.98,1.99-.98s1.49.38,1.82,1.09c.57-.58,1.18-1.09,2.06-1.09,1.43,0,2.07,1.02,2.07,2.67v4.09h-2.05v-3.83c0-.92-.25-1.2-.77-1.2-.32,0-.67.2-1.06.6v4.43h-2.06v-3.83c0-.92-.24-1.2-.77-1.2-.31,0-.66.2-1.06.6v4.43h-2.05v-6.61Z" fill="#fff"/><path d="M66.59,265.82h2.47l2.7,8.65h-2.18l-.5-1.99h-2.57l-.5,1.99h-2.11l2.7-8.65ZM66.91,270.89h1.77l-.19-.74c-.23-.85-.45-1.87-.68-2.78h-.05c-.21.9-.44,1.93-.66,2.78l-.19.74Z" fill="#fff"/><path d="M72.13,271.17c0-2.19,1.63-3.46,3.47-3.46.81,0,1.44.28,1.93.7l-.96,1.26c-.31-.23-.56-.32-.85-.32-.92,0-1.49.72-1.49,1.81s.61,1.81,1.42,1.81c.44,0,.81-.16,1.14-.41l.8,1.29c-.64.58-1.48.78-2.18.78-1.86,0-3.28-1.28-3.28-3.47Z" fill="#fff"/><path d="M78.86,272.03v-2.55h-.89v-1.54l1.01-.07.24-2.02h1.7v2.02h1.56v1.61h-1.56v2.53c0,.74.35,1.02.84,1.02.21,0,.44-.03.61-.09l.32,1.44c-.35.13-.85.27-1.5.27-1.65,0-2.33-1.05-2.33-2.6Z" fill="#fff"/><path d="M83.62,265.88c0-.64.48-1.05,1.16-1.05s1.16.41,1.16,1.05-.48,1.06-1.16,1.06-1.16-.41-1.16-1.06ZM83.76,267.87h2.05v6.61h-2.05v-6.61Z" fill="#fff"/><path d="M86.8,267.87h2.06l.82,3.04c.16.65.33,1.34.49,2.03h.05c.17-.69.35-1.38.5-2.03l.81-3.04h1.97l-2.13,6.61h-2.38l-2.21-6.61Z" fill="#fff"/><path d="M94.38,265.88c0-.64.48-1.05,1.16-1.05s1.16.41,1.16,1.05-.48,1.06-1.16,1.06-1.16-.41-1.16-1.06ZM94.51,267.87h2.05v6.61h-2.05v-6.61Z" fill="#fff"/><path d="M98.5,272.03v-2.55h-.89v-1.54l1.01-.07.24-2.02h1.7v2.02h1.56v1.61h-1.56v2.53c0,.74.35,1.02.84,1.02.21,0,.44-.03.61-.09l.32,1.44c-.35.13-.85.27-1.5.27-1.65,0-2.33-1.05-2.33-2.6Z" fill="#fff"/><path d="M103.24,276.87l.36-1.52c.21.05.31.07.44.07.64,0,.96-.33,1.12-.81l.09-.32-2.54-6.42h2.06l.9,2.74c.19.61.33,1.22.51,1.87h.05c.15-.62.28-1.25.45-1.87l.76-2.74h1.97l-2.27,6.62c-.65,1.7-1.36,2.54-2.94,2.54-.43,0-.69-.05-.96-.16Z" fill="#fff"/><path d="M113.23,265.82h2.26l1.37,3.76c.16.5.31,1.02.47,1.57h.05c.16-.54.29-1.06.46-1.57l1.32-3.76h2.26v8.65h-1.87v-3c0-.85.17-2.33.28-3.18h-.05l-.72,2.26-1.17,3.19h-1.17l-1.16-3.19-.69-2.26h-.05c.11.85.28,2.33.28,3.18v3h-1.86v-8.65Z" fill="#fff"/><path d="M122.96,272.63c0-1.4,1.08-2.15,3.68-2.42-.05-.54-.33-.86-1.01-.86-.53,0-1.06.19-1.73.56l-.72-1.33c.86-.53,1.81-.86,2.84-.86,1.7,0,2.66.94,2.66,3.02v3.75h-1.67l-.15-.66h-.05c-.54.49-1.14.82-1.89.82-1.21,0-1.97-.9-1.97-2.01ZM126.64,272.52v-1.05c-1.32.17-1.71.53-1.71,1,0,.39.25.57.7.57.41,0,.69-.2,1.01-.52Z" fill="#fff"/><path d="M130.3,267.87h1.67l.15.82h.05c.54-.53,1.21-.98,2.11-.98,1.44,0,2.05,1.02,2.05,2.67v4.09h-2.06v-3.83c0-.92-.24-1.2-.77-1.2-.46,0-.74.23-1.16.6v4.43h-2.05v-6.61Z" fill="#fff"/><path d="M137.65,272.63c0-1.4,1.08-2.15,3.68-2.42-.05-.54-.33-.86-1.01-.86-.53,0-1.06.19-1.73.56l-.72-1.33c.86-.53,1.81-.86,2.84-.86,1.7,0,2.66.94,2.66,3.02v3.75h-1.67l-.15-.66h-.05c-.54.49-1.14.82-1.89.82-1.21,0-1.97-.9-1.97-2.01ZM141.33,272.52v-1.05c-1.32.17-1.71.53-1.71,1,0,.39.25.57.7.57.41,0,.69-.2,1.01-.52Z" fill="#fff"/><path d="M144.59,275.59c0-.54.32-.98.93-1.3v-.05c-.35-.24-.6-.58-.6-1.13,0-.46.31-.94.73-1.25v-.05c-.47-.32-.89-.93-.89-1.7,0-1.61,1.33-2.39,2.76-2.39.37,0,.73.05,1.04.16h2.43v1.49h-1.04c.11.19.2.49.2.81,0,1.54-1.17,2.22-2.63,2.22-.23,0-.49-.04-.78-.12-.15.13-.21.24-.21.45,0,.32.27.46.97.46h1.05c1.63,0,2.55.49,2.55,1.69,0,1.4-1.45,2.38-3.75,2.38-1.53,0-2.76-.48-2.76-1.66ZM149.13,275.23c0-.4-.35-.48-.97-.48h-.64c-.48,0-.73-.03-.93-.08-.21.19-.32.37-.32.58,0,.48.56.72,1.41.72s1.45-.32,1.45-.74ZM148.36,270.1c0-.68-.35-1.02-.84-1.02s-.84.34-.84,1.02.36,1.05.84,1.05.84-.36.84-1.05Z" fill="#fff"/><path d="M151.51,271.17c0-2.14,1.54-3.46,3.12-3.46,1.91,0,2.84,1.38,2.84,3.18,0,.37-.04.72-.08.9h-3.89c.19.89.81,1.28,1.65,1.28.48,0,.96-.15,1.42-.41l.66,1.24c-.69.49-1.59.74-2.38.74-1.89,0-3.35-1.26-3.35-3.47ZM155.72,270.41c0-.65-.29-1.14-1.04-1.14-.58,0-1.08.37-1.21,1.14h2.25Z" fill="#fff"/><path d="M158.8,267.87h1.67l.15,1.14h.05c.48-.89,1.21-1.3,1.87-1.3.39,0,.61.04.8.13l-.39,1.74c-.24-.05-.39-.08-.68-.08-.49,0-1.09.32-1.44,1.2v3.77h-2.05v-6.61Z" fill="#fff"/><rect x="210.68" y="731.11" width="144.54" height="47.68" rx="7.42" ry="7.42" fill="#1c2538"/><rect x="379.97" y="731.11" width="144.54" height="47.68" rx="7.42" ry="7.42" fill="#1c2538"/><rect x="549.25" y="731.11" width="144.54" height="47.68" rx="7.42" ry="7.42" fill="#1c2538"/><rect x="41.4" y="731.11" width="144.54" height="47.68" rx="7.42" ry="7.42" fill="#1c2538"/><path d="M221.55,750.81h3.04c1.9,0,3.46.68,3.46,2.8s-1.58,2.98-3.4,2.98h-1.02v2.87h-2.07v-8.65ZM224.53,754.95c1.02,0,1.5-.48,1.5-1.34s-.54-1.17-1.55-1.17h-.85v2.51h.9Z" fill="#fff"/><path d="M229.36,752.85h1.67l.15,1.14h.05c.48-.89,1.21-1.3,1.87-1.3.39,0,.61.04.8.13l-.39,1.74c-.24-.05-.39-.08-.68-.08-.49,0-1.09.32-1.44,1.2v3.77h-2.05v-6.61Z" fill="#fff"/><path d="M234.24,756.15c0-2.19,1.55-3.46,3.23-3.46s3.24,1.26,3.24,3.46-1.55,3.47-3.24,3.47-3.23-1.28-3.23-3.47ZM238.6,756.15c0-1.09-.36-1.81-1.13-1.81s-1.13.72-1.13,1.81.36,1.81,1.13,1.81,1.13-.7,1.13-1.81Z" fill="#fff"/><path d="M241.65,756.15c0-2.19,1.63-3.46,3.47-3.46.81,0,1.44.28,1.93.7l-.96,1.26c-.31-.23-.56-.32-.85-.32-.92,0-1.49.72-1.49,1.81s.61,1.81,1.42,1.81c.44,0,.81-.16,1.14-.41l.8,1.29c-.64.58-1.48.78-2.18.78-1.86,0-3.28-1.28-3.28-3.47Z" fill="#fff"/><path d="M247.51,756.15c0-2.14,1.54-3.46,3.12-3.46,1.91,0,2.84,1.38,2.84,3.18,0,.37-.04.72-.08.9h-3.89c.19.89.81,1.28,1.65,1.28.48,0,.96-.15,1.42-.41l.66,1.24c-.69.49-1.59.74-2.38.74-1.89,0-3.35-1.26-3.35-3.47ZM251.72,755.39c0-.65-.29-1.14-1.04-1.14-.58,0-1.08.37-1.21,1.14h2.25Z" fill="#fff"/><path d="M254.22,758.62l.86-1.16c.61.48,1.21.64,1.73.64.56,0,.78-.2.78-.52,0-.4-.56-.57-1.26-.84-.94-.35-1.74-.94-1.74-1.97,0-1.25,1.01-2.09,2.55-2.09.97,0,1.79.36,2.37.84l-.88,1.16c-.48-.35-.97-.48-1.42-.48-.48,0-.7.19-.7.48,0,.35.37.5,1.21.77,1.01.32,1.81.92,1.81,2.01,0,1.21-.96,2.15-2.75,2.15-.88,0-1.89-.35-2.55-1Z" fill="#fff"/><path d="M260.15,758.62l.86-1.16c.61.48,1.21.64,1.73.64.56,0,.78-.2.78-.52,0-.4-.56-.57-1.26-.84-.94-.35-1.74-.94-1.74-1.97,0-1.25,1.01-2.09,2.55-2.09.97,0,1.79.36,2.37.84l-.88,1.16c-.48-.35-.97-.48-1.42-.48-.48,0-.7.19-.7.48,0,.35.37.5,1.21.77,1.01.32,1.81.92,1.81,2.01,0,1.21-.96,2.15-2.75,2.15-.88,0-1.89-.35-2.55-1Z" fill="#fff"/><path d="M269.47,750.81h2.26l1.37,3.76c.16.5.31,1.02.47,1.57h.05c.16-.54.29-1.06.46-1.57l1.32-3.76h2.26v8.65h-1.87v-3c0-.85.17-2.33.28-3.18h-.05l-.72,2.26-1.17,3.19h-1.17l-1.16-3.19-.69-2.26h-.05c.11.85.28,2.33.28,3.18v3h-1.86v-8.65Z" fill="#fff"/><path d="M279.2,757.61c0-1.4,1.08-2.15,3.68-2.42-.05-.54-.33-.86-1.01-.86-.53,0-1.06.19-1.73.56l-.72-1.33c.86-.53,1.81-.86,2.84-.86,1.7,0,2.66.94,2.66,3.02v3.75h-1.67l-.15-.66h-.05c-.54.49-1.14.82-1.89.82-1.21,0-1.97-.9-1.97-2.01ZM282.88,757.5v-1.05c-1.32.17-1.71.53-1.71,1,0,.39.25.57.7.57.41,0,.69-.2,1.01-.52Z" fill="#fff"/><path d="M286.54,752.85h1.67l.15.82h.05c.54-.53,1.21-.98,2.11-.98,1.44,0,2.05,1.02,2.05,2.67v4.09h-2.06v-3.83c0-.92-.24-1.2-.77-1.2-.46,0-.74.23-1.16.6v4.43h-2.05v-6.61Z" fill="#fff"/><path d="M293.89,757.61c0-1.4,1.08-2.15,3.68-2.42-.05-.54-.33-.86-1.01-.86-.53,0-1.06.19-1.73.56l-.72-1.33c.86-.53,1.81-.86,2.84-.86,1.7,0,2.66.94,2.66,3.02v3.75h-1.67l-.15-.66h-.05c-.54.49-1.14.82-1.89.82-1.21,0-1.97-.9-1.97-2.01ZM297.57,757.5v-1.05c-1.32.17-1.71.53-1.71,1,0,.39.25.57.7.57.41,0,.69-.2,1.01-.52Z" fill="#fff"/><path d="M300.83,760.57c0-.54.32-.98.93-1.3v-.05c-.35-.24-.6-.58-.6-1.13,0-.46.31-.94.73-1.25v-.05c-.47-.32-.89-.93-.89-1.7,0-1.61,1.33-2.39,2.76-2.39.37,0,.73.05,1.04.16h2.43v1.49h-1.04c.11.19.2.49.2.81,0,1.54-1.17,2.22-2.63,2.22-.23,0-.49-.04-.78-.12-.15.13-.21.24-.21.45,0,.32.27.46.97.46h1.05c1.63,0,2.55.49,2.55,1.69,0,1.4-1.45,2.38-3.75,2.38-1.53,0-2.76-.48-2.76-1.66ZM305.37,760.22c0-.4-.35-.48-.97-.48h-.64c-.48,0-.73-.03-.93-.08-.21.19-.32.37-.32.58,0,.48.56.72,1.41.72s1.45-.32,1.45-.74ZM304.6,755.09c0-.68-.35-1.02-.84-1.02s-.84.34-.84,1.02.36,1.05.84,1.05.84-.36.84-1.05Z" fill="#fff"/><path d="M307.75,756.15c0-2.14,1.54-3.46,3.12-3.46,1.91,0,2.84,1.38,2.84,3.18,0,.37-.04.72-.08.9h-3.89c.19.89.81,1.28,1.65,1.28.48,0,.96-.15,1.42-.41l.66,1.24c-.69.49-1.59.74-2.38.74-1.89,0-3.35-1.26-3.35-3.47ZM311.97,755.39c0-.65-.29-1.14-1.04-1.14-.58,0-1.08.37-1.21,1.14h2.25Z" fill="#fff"/><path d="M315.04,752.85h1.67l.15.82h.05c.53-.53,1.12-.98,1.99-.98s1.49.39,1.82,1.09c.57-.58,1.18-1.09,2.06-1.09,1.44,0,2.07,1.02,2.07,2.67v4.09h-2.05v-3.83c0-.92-.25-1.2-.77-1.2-.32,0-.66.2-1.06.6v4.43h-2.06v-3.83c0-.92-.24-1.2-.77-1.2-.31,0-.66.2-1.06.6v4.43h-2.05v-6.61Z" fill="#fff"/><path d="M326.11,756.15c0-2.14,1.54-3.46,3.12-3.46,1.91,0,2.84,1.38,2.84,3.18,0,.37-.04.72-.08.9h-3.89c.19.89.81,1.28,1.65,1.28.48,0,.96-.15,1.42-.41l.66,1.24c-.69.49-1.59.74-2.38.74-1.89,0-3.35-1.26-3.35-3.47ZM330.33,755.39c0-.65-.29-1.14-1.04-1.14-.58,0-1.08.37-1.21,1.14h2.25Z" fill="#fff"/><path d="M333.4,752.85h1.67l.15.82h.05c.54-.53,1.21-.98,2.11-.98,1.44,0,2.05,1.02,2.05,2.67v4.09h-2.06v-3.83c0-.92-.24-1.2-.77-1.2-.47,0-.74.23-1.16.6v4.43h-2.05v-6.61Z" fill="#fff"/><path d="M341.31,757.01v-2.55h-.89v-1.54l1.01-.07.24-2.02h1.7v2.02h1.56v1.61h-1.56v2.53c0,.74.35,1.02.84,1.02.21,0,.44-.03.61-.09l.32,1.44c-.35.13-.85.27-1.5.27-1.65,0-2.33-1.05-2.33-2.6Z" fill="#fff"/><path d="M410.01,750.81h2.14l2.13,4.15c.31.58.58,1.28.85,1.95h.05c-.11-.93-.27-2.17-.27-3.19v-2.91h1.95v8.65h-2.13l-2.14-4.15c-.29-.58-.57-1.28-.84-1.95h-.05c.11.96.27,2.15.27,3.19v2.91h-1.97v-8.65Z" fill="#fff"/><path d="M418.34,756.15c0-2.14,1.54-3.46,3.12-3.46,1.91,0,2.84,1.38,2.84,3.18,0,.37-.04.72-.08.9h-3.89c.19.89.81,1.28,1.65,1.28.48,0,.96-.15,1.42-.41l.67,1.24c-.69.49-1.59.74-2.38.74-1.89,0-3.35-1.26-3.35-3.47ZM422.55,755.39c0-.65-.29-1.14-1.04-1.14-.58,0-1.08.37-1.21,1.14h2.25Z" fill="#fff"/><path d="M425.76,757.01v-2.55h-.89v-1.54l1.01-.07.24-2.02h1.7v2.02h1.55v1.61h-1.55v2.53c0,.74.35,1.02.84,1.02.21,0,.44-.03.61-.09l.32,1.44c-.35.13-.85.27-1.5.27-1.65,0-2.33-1.05-2.33-2.6Z" fill="#fff"/><path d="M430.13,752.85h2.03l.6,2.98c.11.64.19,1.28.28,1.99h.05c.12-.72.23-1.37.37-1.99l.68-2.98h1.82l.7,2.98c.15.64.27,1.28.39,1.99h.05c.12-.72.17-1.36.29-1.99l.58-2.98h1.9l-1.55,6.61h-2.45l-.53-2.54c-.12-.61-.23-1.2-.33-1.95h-.05c-.11.76-.19,1.34-.31,1.95l-.52,2.54h-2.38l-1.63-6.61Z" fill="#fff"/><path d="M440.55,756.15c0-2.19,1.56-3.46,3.23-3.46s3.24,1.26,3.24,3.46-1.55,3.47-3.24,3.47-3.23-1.28-3.23-3.47ZM444.91,756.15c0-1.09-.36-1.81-1.13-1.81s-1.13.72-1.13,1.81.36,1.81,1.13,1.81,1.13-.7,1.13-1.81Z" fill="#fff"/><path d="M448.33,752.85h1.67l.15,1.14h.05c.48-.89,1.21-1.3,1.87-1.3.39,0,.61.04.8.13l-.39,1.74c-.24-.05-.39-.08-.68-.08-.49,0-1.09.32-1.44,1.2v3.77h-2.05v-6.61Z" fill="#fff"/><path d="M453.71,750.17h2.03v5.18h.04l1.97-2.5h2.26l-2.3,2.75,2.46,3.85h-2.23l-1.44-2.51-.76.88v1.63h-2.03v-9.29Z" fill="#fff"/><path d="M463.35,758.35l1.09-1.34c.61.53,1.45.82,2.18.82.78,0,1.14-.29,1.14-.76,0-.5-.46-.67-1.22-.97l-1.1-.48c-.92-.36-1.75-1.12-1.75-2.37,0-1.45,1.3-2.62,3.14-2.62,1.04,0,2.06.39,2.8,1.08l-1.08,1.34c-.58-.41-1.18-.64-1.73-.64-.64,0-1.05.25-1.05.7,0,.5.54.68,1.32.98l1.08.44c1.08.43,1.71,1.14,1.71,2.35,0,1.45-1.21,2.71-3.3,2.71-1.17,0-2.33-.4-3.23-1.26Z" fill="#fff"/><path d="M471.04,757.01v-2.55h-.89v-1.54l1.01-.07.24-2.02h1.7v2.02h1.55v1.61h-1.55v2.53c0,.74.35,1.02.84,1.02.21,0,.44-.03.61-.09l.32,1.44c-.35.13-.85.27-1.5.27-1.65,0-2.33-1.05-2.33-2.6Z" fill="#fff"/><path d="M475.37,757.61c0-1.4,1.08-2.15,3.68-2.42-.05-.54-.33-.86-1.01-.86-.53,0-1.06.19-1.73.56l-.72-1.33c.86-.53,1.81-.86,2.84-.86,1.7,0,2.66.94,2.66,3.02v3.75h-1.67l-.15-.66h-.05c-.54.49-1.14.82-1.89.82-1.21,0-1.97-.9-1.97-2.01ZM479.05,757.5v-1.05c-1.32.17-1.71.53-1.71,1,0,.39.25.57.7.57.41,0,.69-.2,1.01-.52Z" fill="#fff"/><path d="M482.33,756.15c0-2.19,1.63-3.46,3.47-3.46.81,0,1.44.28,1.93.7l-.96,1.26c-.31-.23-.56-.32-.85-.32-.92,0-1.49.72-1.49,1.81s.61,1.81,1.42,1.81c.44,0,.81-.16,1.14-.41l.8,1.29c-.64.58-1.48.78-2.18.78-1.86,0-3.28-1.28-3.28-3.47Z" fill="#fff"/><path d="M488.94,750.17h2.03v5.18h.04l1.97-2.5h2.26l-2.3,2.75,2.46,3.85h-2.23l-1.44-2.51-.76.88v1.63h-2.03v-9.29Z" fill="#fff"/><path d="M580.49,750.81h2.49c2.64,0,4.39,1.29,4.39,4.29s-1.74,4.36-4.27,4.36h-2.6v-8.65ZM582.85,757.8c1.4,0,2.39-.65,2.39-2.7s-1-2.63-2.39-2.63h-.29v5.33h.29Z" fill="#fff"/><path d="M588.42,756.15c0-2.14,1.54-3.46,3.12-3.46,1.91,0,2.84,1.38,2.84,3.18,0,.37-.04.72-.08.9h-3.89c.19.89.81,1.28,1.65,1.28.48,0,.96-.15,1.42-.41l.67,1.24c-.69.49-1.59.74-2.38.74-1.89,0-3.35-1.26-3.35-3.47ZM592.64,755.39c0-.65-.29-1.14-1.04-1.14-.58,0-1.08.37-1.21,1.14h2.25Z" fill="#fff"/><path d="M594.94,752.85h2.06l.82,3.04c.16.65.33,1.34.49,2.03h.05c.17-.69.34-1.38.5-2.03l.81-3.04h1.97l-2.13,6.61h-2.38l-2.21-6.61Z" fill="#fff"/><path d="M602.51,750.86c0-.64.48-1.05,1.16-1.05s1.16.41,1.16,1.05-.48,1.06-1.16,1.06-1.16-.41-1.16-1.06ZM602.65,752.85h2.05v6.61h-2.05v-6.61Z" fill="#fff"/><path d="M606,756.15c0-2.19,1.63-3.46,3.47-3.46.81,0,1.44.28,1.93.7l-.96,1.26c-.31-.23-.56-.32-.85-.32-.92,0-1.49.72-1.49,1.81s.61,1.81,1.42,1.81c.44,0,.81-.16,1.14-.41l.8,1.29c-.64.58-1.48.78-2.18.78-1.86,0-3.28-1.28-3.28-3.47Z" fill="#fff"/><path d="M611.86,756.15c0-2.14,1.54-3.46,3.12-3.46,1.91,0,2.84,1.38,2.84,3.18,0,.37-.04.72-.08.9h-3.89c.19.89.81,1.28,1.65,1.28.48,0,.96-.15,1.42-.41l.67,1.24c-.69.49-1.59.74-2.38.74-1.89,0-3.35-1.26-3.35-3.47ZM616.07,755.39c0-.65-.29-1.14-1.04-1.14-.58,0-1.08.37-1.21,1.14h2.25Z" fill="#fff"/><path d="M621.96,750.81h2.49c2.64,0,4.39,1.29,4.39,4.29s-1.74,4.36-4.27,4.36h-2.6v-8.65ZM624.33,757.8c1.4,0,2.39-.65,2.39-2.7s-1-2.63-2.39-2.63h-.29v5.33h.29Z" fill="#fff"/><path d="M630.27,752.85h1.67l.15,1.14h.05c.48-.89,1.21-1.3,1.87-1.3.39,0,.61.04.8.13l-.39,1.74c-.24-.05-.39-.08-.68-.08-.49,0-1.09.32-1.44,1.2v3.77h-2.05v-6.61Z" fill="#fff"/><path d="M635.52,750.86c0-.64.48-1.05,1.16-1.05s1.16.41,1.16,1.05-.48,1.06-1.16,1.06-1.16-.41-1.16-1.06ZM635.65,752.85h2.05v6.61h-2.05v-6.61Z" fill="#fff"/><path d="M638.7,752.85h2.06l.82,3.04c.16.65.33,1.34.49,2.03h.05c.17-.69.34-1.38.5-2.03l.81-3.04h1.97l-2.13,6.61h-2.38l-2.21-6.61Z" fill="#fff"/><path d="M645.92,756.15c0-2.14,1.54-3.46,3.12-3.46,1.91,0,2.84,1.38,2.84,3.18,0,.37-.04.72-.08.9h-3.89c.19.89.81,1.28,1.65,1.28.48,0,.96-.15,1.42-.41l.67,1.24c-.69.49-1.59.74-2.38.74-1.89,0-3.35-1.26-3.35-3.47ZM650.13,755.39c0-.65-.29-1.14-1.04-1.14-.58,0-1.08.37-1.21,1.14h2.25Z" fill="#fff"/><path d="M653.2,752.85h1.67l.15,1.14h.05c.48-.89,1.21-1.3,1.87-1.3.39,0,.61.04.8.13l-.39,1.74c-.24-.05-.39-.08-.68-.08-.49,0-1.09.32-1.44,1.2v3.77h-2.05v-6.61Z" fill="#fff"/><path d="M657.89,758.62l.86-1.16c.61.48,1.21.64,1.73.64.56,0,.78-.2.78-.52,0-.4-.56-.57-1.26-.84-.94-.35-1.74-.94-1.74-1.97,0-1.25,1.01-2.09,2.55-2.09.97,0,1.79.36,2.37.84l-.88,1.16c-.48-.35-.97-.48-1.42-.48-.48,0-.7.19-.7.48,0,.35.37.5,1.21.77,1.01.32,1.81.92,1.81,2.01,0,1.21-.96,2.15-2.75,2.15-.88,0-1.89-.35-2.55-1Z" fill="#fff"/><path d="M50.69,750.81h2.26l1.37,3.76c.16.5.31,1.02.47,1.57h.05c.16-.54.29-1.06.46-1.57l1.32-3.76h2.26v8.65h-1.87v-3c0-.85.17-2.33.28-3.18h-.05l-.72,2.26-1.17,3.19h-1.17l-1.16-3.19-.69-2.26h-.05c.11.85.28,2.33.28,3.18v3h-1.86v-8.65Z" fill="#fff"/><path d="M60.34,756.15c0-2.14,1.54-3.46,3.12-3.46,1.91,0,2.84,1.38,2.84,3.18,0,.37-.04.72-.08.9h-3.89c.19.89.81,1.28,1.65,1.28.48,0,.96-.15,1.42-.41l.66,1.24c-.69.49-1.59.74-2.38.74-1.89,0-3.35-1.26-3.35-3.47ZM64.55,755.39c0-.65-.29-1.14-1.04-1.14-.58,0-1.08.37-1.21,1.14h2.25Z" fill="#fff"/><path d="M67.63,752.85h1.67l.15.82h.05c.53-.53,1.12-.98,1.99-.98s1.49.39,1.82,1.09c.57-.58,1.18-1.09,2.06-1.09,1.44,0,2.07,1.02,2.07,2.67v4.09h-2.05v-3.83c0-.92-.25-1.2-.77-1.2-.32,0-.66.2-1.06.6v4.43h-2.06v-3.83c0-.92-.24-1.2-.77-1.2-.31,0-.66.2-1.06.6v4.43h-2.05v-6.61Z" fill="#fff"/><path d="M78.7,756.15c0-2.19,1.55-3.46,3.23-3.46s3.24,1.26,3.24,3.46-1.55,3.47-3.24,3.47-3.23-1.28-3.23-3.47ZM83.06,756.15c0-1.09-.36-1.81-1.13-1.81s-1.13.72-1.13,1.81.36,1.81,1.13,1.81,1.13-.7,1.13-1.81Z" fill="#fff"/><path d="M86.47,752.85h1.67l.15,1.14h.05c.48-.89,1.21-1.3,1.87-1.3.39,0,.61.04.8.13l-.39,1.74c-.24-.05-.39-.08-.68-.08-.49,0-1.09.32-1.44,1.2v3.77h-2.05v-6.61Z" fill="#fff"/><path d="M91.78,761.85l.36-1.52c.21.05.31.07.44.07.64,0,.96-.33,1.12-.81l.09-.32-2.54-6.42h2.06l.9,2.74c.19.61.33,1.22.51,1.87h.05c.15-.62.28-1.25.45-1.87l.76-2.74h1.97l-2.27,6.62c-.65,1.7-1.36,2.54-2.94,2.54-.43,0-.69-.05-.96-.16Z" fill="#fff"/><path d="M101.76,750.81h2.26l1.37,3.76c.16.5.31,1.02.47,1.57h.05c.16-.54.29-1.06.46-1.57l1.32-3.76h2.26v8.65h-1.87v-3c0-.85.17-2.33.28-3.18h-.05l-.72,2.26-1.17,3.19h-1.17l-1.16-3.19-.69-2.26h-.05c.11.85.28,2.33.28,3.18v3h-1.86v-8.65Z" fill="#fff"/><path d="M111.49,757.61c0-1.4,1.08-2.15,3.68-2.42-.05-.54-.33-.86-1.01-.86-.53,0-1.06.19-1.73.56l-.72-1.33c.86-.53,1.81-.86,2.84-.86,1.7,0,2.66.94,2.66,3.02v3.75h-1.67l-.15-.66h-.05c-.54.49-1.14.82-1.89.82-1.21,0-1.97-.9-1.97-2.01ZM115.17,757.5v-1.05c-1.32.17-1.71.53-1.71,1,0,.39.25.57.7.57.41,0,.69-.2,1.01-.52Z" fill="#fff"/><path d="M118.83,752.85h1.67l.15.82h.05c.54-.53,1.21-.98,2.11-.98,1.44,0,2.05,1.02,2.05,2.67v4.09h-2.06v-3.83c0-.92-.24-1.2-.77-1.2-.47,0-.74.23-1.16.6v4.43h-2.05v-6.61Z" fill="#fff"/><path d="M126.18,757.61c0-1.4,1.08-2.15,3.68-2.42-.05-.54-.33-.86-1.01-.86-.53,0-1.06.19-1.73.56l-.72-1.33c.86-.53,1.81-.86,2.84-.86,1.7,0,2.66.94,2.66,3.02v3.75h-1.67l-.15-.66h-.05c-.54.49-1.14.82-1.89.82-1.21,0-1.97-.9-1.97-2.01ZM129.86,757.5v-1.05c-1.32.17-1.71.53-1.71,1,0,.39.25.57.7.57.41,0,.69-.2,1.01-.52Z" fill="#fff"/><path d="M133.12,760.57c0-.54.32-.98.93-1.3v-.05c-.35-.24-.6-.58-.6-1.13,0-.46.31-.94.73-1.25v-.05c-.47-.32-.89-.93-.89-1.7,0-1.61,1.33-2.39,2.76-2.39.37,0,.73.05,1.04.16h2.43v1.49h-1.04c.11.19.2.49.2.81,0,1.54-1.17,2.22-2.63,2.22-.23,0-.49-.04-.78-.12-.15.13-.21.24-.21.45,0,.32.27.46.97.46h1.05c1.63,0,2.55.49,2.55,1.69,0,1.4-1.45,2.38-3.75,2.38-1.53,0-2.76-.48-2.76-1.66ZM137.67,760.22c0-.4-.35-.48-.97-.48h-.64c-.48,0-.73-.03-.93-.08-.21.19-.32.37-.32.58,0,.48.56.72,1.41.72s1.45-.32,1.45-.74ZM136.89,755.09c0-.68-.35-1.02-.84-1.02s-.84.34-.84,1.02.36,1.05.84,1.05.84-.36.84-1.05Z" fill="#fff"/><path d="M140.05,756.15c0-2.14,1.54-3.46,3.12-3.46,1.91,0,2.84,1.38,2.84,3.18,0,.37-.04.72-.08.9h-3.89c.19.89.81,1.28,1.65,1.28.48,0,.96-.15,1.42-.41l.66,1.24c-.69.49-1.59.74-2.38.74-1.89,0-3.35-1.26-3.35-3.47ZM144.26,755.39c0-.65-.29-1.14-1.04-1.14-.58,0-1.08.37-1.21,1.14h2.25Z" fill="#fff"/><path d="M147.33,752.85h1.67l.15.82h.05c.53-.53,1.12-.98,1.99-.98s1.49.39,1.82,1.09c.57-.58,1.18-1.09,2.06-1.09,1.44,0,2.07,1.02,2.07,2.67v4.09h-2.05v-3.83c0-.92-.25-1.2-.77-1.2-.32,0-.66.2-1.06.6v4.43h-2.06v-3.83c0-.92-.24-1.2-.77-1.2-.31,0-.66.2-1.06.6v4.43h-2.05v-6.61Z" fill="#fff"/><path d="M158.4,756.15c0-2.14,1.54-3.46,3.12-3.46,1.91,0,2.84,1.38,2.84,3.18,0,.37-.04.72-.08.9h-3.89c.19.89.81,1.28,1.65,1.28.48,0,.96-.15,1.42-.41l.66,1.24c-.69.49-1.59.74-2.38.74-1.89,0-3.35-1.26-3.35-3.47ZM162.62,755.39c0-.65-.29-1.14-1.04-1.14-.58,0-1.08.37-1.21,1.14h2.25Z" fill="#fff"/><path d="M165.69,752.85h1.67l.15.82h.05c.54-.53,1.21-.98,2.11-.98,1.44,0,2.05,1.02,2.05,2.67v4.09h-2.06v-3.83c0-.92-.24-1.2-.77-1.2-.46,0-.74.23-1.16.6v4.43h-2.05v-6.61Z" fill="#fff"/><path d="M173.6,757.01v-2.55h-.89v-1.54l1.01-.07.24-2.02h1.7v2.02h1.56v1.61h-1.56v2.53c0,.74.35,1.02.84,1.02.21,0,.44-.03.61-.09l.32,1.44c-.35.13-.85.27-1.5.27-1.65,0-2.33-1.05-2.33-2.6Z" fill="#fff"/><rect x="263.86" y="567.58" width="144.54" height="47.68" rx="7.42" ry="7.42" fill="#1c2538"/><path d="M286.35,591.66c0-2.88,1.94-4.54,4.25-4.54,1.26,0,2.17.5,2.76,1.13l-1.09,1.25c-.43-.39-.88-.6-1.61-.6-1.28,0-2.21,1.01-2.21,2.68s.78,2.72,2.39,2.72c.31,0,.64-.08.82-.23v-1.4h-1.38v-1.69h3.22v4.04c-.6.58-1.66,1.05-2.88,1.05-2.39,0-4.28-1.5-4.28-4.43Z" fill="#fff"/><path d="M295.1,589.33h1.67l.15,1.14h.05c.48-.89,1.21-1.3,1.87-1.3.39,0,.61.04.8.13l-.39,1.74c-.24-.05-.39-.08-.68-.08-.49,0-1.09.32-1.44,1.2v3.77h-2.05v-6.61Z" fill="#fff"/><path d="M299.81,594.08c0-1.4,1.08-2.15,3.68-2.42-.05-.54-.33-.86-1.01-.86-.53,0-1.06.19-1.73.56l-.72-1.33c.86-.53,1.81-.86,2.84-.86,1.7,0,2.66.94,2.66,3.02v3.75h-1.67l-.15-.66h-.05c-.54.49-1.14.82-1.89.82-1.21,0-1.97-.9-1.97-2.01ZM303.49,593.98v-1.05c-1.32.17-1.71.53-1.71,1,0,.39.25.57.7.57.41,0,.69-.2,1.01-.52Z" fill="#fff"/><path d="M307.14,589.33h1.67l.15.64h.05c.5-.46,1.17-.8,1.85-.8,1.59,0,2.58,1.32,2.58,3.35,0,2.27-1.34,3.58-2.76,3.58-.57,0-1.09-.24-1.56-.68l.07,1.02v1.91h-2.05v-9.02ZM311.33,592.54c0-1.16-.35-1.7-1.08-1.7-.39,0-.7.17-1.06.56v2.62c.33.29.68.39,1,.39.64,0,1.14-.52,1.14-1.86Z" fill="#fff"/><path d="M314.79,586.64h2.05v2.23l-.09,1.18c.49-.44,1.13-.89,2.03-.89,1.44,0,2.05,1.02,2.05,2.67v4.09h-2.06v-3.83c0-.92-.24-1.2-.77-1.2-.46,0-.74.23-1.16.6v4.43h-2.05v-9.29Z" fill="#fff"/><path d="M322.3,587.33c0-.64.48-1.05,1.16-1.05s1.16.41,1.16,1.05-.48,1.06-1.16,1.06-1.16-.41-1.16-1.06ZM322.43,589.33h2.05v6.61h-2.05v-6.61Z" fill="#fff"/><path d="M325.78,592.62c0-2.19,1.63-3.46,3.47-3.46.81,0,1.44.28,1.93.7l-.96,1.26c-.31-.23-.56-.32-.85-.32-.92,0-1.49.72-1.49,1.81s.61,1.81,1.42,1.81c.44,0,.81-.16,1.14-.41l.8,1.29c-.64.58-1.48.78-2.18.78-1.86,0-3.28-1.28-3.28-3.47Z" fill="#fff"/><path d="M335.2,587.28h2.07v6.92h3.36v1.73h-5.44v-8.65Z" fill="#fff"/><path d="M341.85,587.33c0-.64.48-1.05,1.16-1.05s1.16.41,1.16,1.05-.48,1.06-1.16,1.06-1.16-.41-1.16-1.06ZM341.98,589.33h2.05v6.61h-2.05v-6.61Z" fill="#fff"/><path d="M347.53,595.23h-.05l-.16.7h-1.61v-9.29h2.05v2.23l-.04,1c.49-.44,1.09-.7,1.7-.7,1.59,0,2.59,1.32,2.59,3.35,0,2.27-1.34,3.58-2.76,3.58-.6,0-1.2-.29-1.71-.86ZM349.89,592.54c0-1.16-.35-1.7-1.08-1.7-.39,0-.7.17-1.06.56v2.62c.33.29.68.39,1,.39.64,0,1.14-.52,1.14-1.86Z" fill="#fff"/><path d="M353.35,589.33h1.67l.15,1.14h.05c.48-.89,1.21-1.3,1.87-1.3.39,0,.61.04.8.13l-.39,1.74c-.24-.05-.39-.08-.68-.08-.49,0-1.09.32-1.44,1.2v3.77h-2.05v-6.61Z" fill="#fff"/><path d="M358.06,594.08c0-1.4,1.08-2.15,3.68-2.42-.05-.54-.33-.86-1.01-.86-.53,0-1.06.19-1.73.56l-.72-1.33c.86-.53,1.81-.86,2.84-.86,1.7,0,2.66.94,2.66,3.02v3.75h-1.67l-.15-.66h-.05c-.54.49-1.14.82-1.89.82-1.21,0-1.97-.9-1.97-2.01ZM361.74,593.98v-1.05c-1.32.17-1.71.53-1.71,1,0,.39.25.57.7.57.41,0,.69-.2,1.01-.52Z" fill="#fff"/><path d="M365.39,589.33h1.67l.15,1.14h.05c.48-.89,1.21-1.3,1.87-1.3.38,0,.61.04.8.13l-.38,1.74c-.24-.05-.39-.08-.68-.08-.49,0-1.09.32-1.44,1.2v3.77h-2.05v-6.61Z" fill="#fff"/><path d="M370.64,587.33c0-.64.48-1.05,1.16-1.05s1.16.41,1.16,1.05-.48,1.06-1.16,1.06-1.16-.41-1.16-1.06ZM370.78,589.33h2.05v6.61h-2.05v-6.61Z" fill="#fff"/><path d="M374.13,592.62c0-2.14,1.54-3.46,3.12-3.46,1.91,0,2.84,1.38,2.84,3.18,0,.37-.04.72-.08.9h-3.89c.19.89.81,1.28,1.65,1.28.48,0,.96-.15,1.42-.41l.66,1.24c-.69.49-1.59.74-2.38.74-1.89,0-3.35-1.26-3.35-3.47ZM378.34,591.86c0-.65-.29-1.14-1.04-1.14-.58,0-1.08.37-1.21,1.14h2.25Z" fill="#fff"/><path d="M380.84,595.09l.86-1.16c.61.48,1.21.64,1.73.64.56,0,.78-.2.78-.52,0-.4-.56-.57-1.26-.84-.94-.35-1.74-.94-1.74-1.97,0-1.25,1.01-2.09,2.55-2.09.97,0,1.79.36,2.37.84l-.88,1.16c-.48-.35-.97-.48-1.42-.48-.48,0-.7.19-.7.48,0,.35.37.5,1.21.77,1.01.32,1.81.92,1.81,2.01,0,1.21-.96,2.15-2.75,2.15-.88,0-1.89-.35-2.55-1Z" fill="#fff"/><rect x="433.14" y="567.58" width="91.37" height="47.68" rx="7.42" ry="7.42" fill="#1c2538"/><path d="M459.76,594.83l1.09-1.34c.61.53,1.45.82,2.18.82.78,0,1.14-.29,1.14-.76,0-.5-.46-.67-1.22-.97l-1.1-.48c-.92-.36-1.75-1.12-1.75-2.37,0-1.45,1.3-2.62,3.14-2.62,1.04,0,2.06.39,2.8,1.08l-1.08,1.34c-.58-.41-1.18-.64-1.73-.64-.64,0-1.05.25-1.05.7,0,.5.54.68,1.32.98l1.08.44c1.08.43,1.71,1.14,1.71,2.35,0,1.45-1.21,2.71-3.3,2.71-1.17,0-2.33-.4-3.23-1.26Z" fill="#fff"/><path d="M470.34,596c-1.82-.4-3.02-1.99-3.02-4.43,0-2.84,1.61-4.45,3.96-4.45s3.96,1.62,3.96,4.45c0,2.3-1.06,3.84-2.72,4.35.4.6,1.17.81,1.89.81.37,0,.71-.05.97-.13l.36,1.48c-.33.17-.88.31-1.57.31-1.89,0-3.19-1-3.83-2.38ZM473.14,591.57c0-1.69-.71-2.67-1.85-2.67s-1.85.98-1.85,2.67c0,1.79.72,2.83,1.85,2.83s1.85-1.04,1.85-2.83Z" fill="#fff"/><path d="M476.86,587.28h2.07v6.92h3.36v1.73h-5.44v-8.65Z" fill="#fff"/><path d="M483.51,587.33c0-.64.48-1.05,1.16-1.05s1.16.41,1.16,1.05-.48,1.06-1.16,1.06-1.16-.41-1.16-1.06ZM483.64,589.33h2.05v6.61h-2.05v-6.61Z" fill="#fff"/><path d="M487.63,593.49v-2.55h-.89v-1.54l1.01-.07.24-2.02h1.7v2.02h1.55v1.61h-1.55v2.53c0,.74.35,1.02.84,1.02.21,0,.44-.03.61-.09l.32,1.44c-.35.13-.85.27-1.5.27-1.65,0-2.33-1.05-2.33-2.6Z" fill="#fff"/><path d="M491.89,592.62c0-2.14,1.54-3.46,3.12-3.46,1.91,0,2.84,1.38,2.84,3.18,0,.37-.04.72-.08.9h-3.89c.19.89.81,1.28,1.65,1.28.48,0,.96-.15,1.42-.41l.66,1.24c-.69.49-1.59.74-2.38.74-1.89,0-3.35-1.26-3.35-3.47ZM496.11,591.86c0-.65-.29-1.14-1.04-1.14-.58,0-1.08.37-1.21,1.14h2.25Z" fill="#fff"/><rect x="549.25" y="567.58" width="91.37" height="47.68" rx="7.42" ry="7.42" fill="#1c2538"/><path d="M574.29,587.28h2.1l.54,3.96c.12.92.23,1.82.32,2.76h.05c.16-.94.33-1.86.5-2.76l.9-3.96h1.78l.88,3.96c.17.88.35,1.81.5,2.76h.05c.09-.96.21-1.87.32-2.76l.58-3.96h1.97l-1.53,8.65h-2.62l-.78-3.79c-.15-.68-.24-1.36-.32-2.05h-.05c-.09.69-.19,1.37-.33,2.05l-.75,3.79h-2.58l-1.55-8.65Z" fill="#fff"/><path d="M585.43,592.62c0-2.14,1.54-3.46,3.12-3.46,1.91,0,2.84,1.38,2.84,3.18,0,.37-.04.72-.08.9h-3.89c.19.89.81,1.28,1.65,1.28.48,0,.96-.15,1.42-.41l.66,1.24c-.69.49-1.59.74-2.38.74-1.89,0-3.35-1.26-3.35-3.47ZM589.64,591.86c0-.65-.29-1.14-1.04-1.14-.58,0-1.08.37-1.21,1.14h2.25Z" fill="#fff"/><path d="M594.53,595.23h-.05l-.16.7h-1.61v-9.29h2.05v2.23l-.04,1c.49-.44,1.09-.7,1.7-.7,1.6,0,2.59,1.32,2.59,3.35,0,2.27-1.34,3.58-2.76,3.58-.6,0-1.2-.29-1.71-.86ZM596.9,592.54c0-1.16-.35-1.7-1.08-1.7-.39,0-.7.17-1.06.56v2.62c.33.29.68.39,1,.39.64,0,1.14-.52,1.14-1.86Z" fill="#fff"/><path d="M600.35,586.64h2.03v5.18h.04l1.97-2.5h2.26l-2.3,2.75,2.46,3.85h-2.23l-1.44-2.51-.76.88v1.63h-2.03v-9.29Z" fill="#fff"/><path d="M607.59,587.33c0-.64.48-1.05,1.16-1.05s1.16.41,1.16,1.05-.48,1.06-1.16,1.06-1.16-.41-1.16-1.06ZM607.72,589.33h2.05v6.61h-2.05v-6.61Z" fill="#fff"/><path d="M611.71,593.49v-2.55h-.89v-1.54l1.01-.07.24-2.02h1.7v2.02h1.55v1.61h-1.55v2.53c0,.74.35,1.02.84,1.02.21,0,.44-.03.61-.09l.32,1.44c-.35.13-.85.27-1.5.27-1.65,0-2.33-1.05-2.33-2.6Z" fill="#fff"/><rect x="94.57" y="567.58" width="144.54" height="47.68" rx="7.42" ry="7.42" fill="#1c2538"/><path d="M122.61,587.28h2.26l1.37,3.76c.16.5.31,1.02.47,1.57h.05c.16-.54.29-1.06.46-1.57l1.32-3.76h2.26v8.65h-1.87v-3c0-.85.17-2.33.28-3.18h-.05l-.72,2.26-1.17,3.19h-1.17l-1.16-3.19-.69-2.26h-.05c.11.85.28,2.33.28,3.18v3h-1.86v-8.65Z" fill="#fff"/><path d="M132.26,592.62c0-2.14,1.54-3.46,3.12-3.46,1.91,0,2.84,1.38,2.84,3.18,0,.37-.04.72-.08.9h-3.89c.19.89.81,1.28,1.65,1.28.48,0,.96-.15,1.42-.41l.66,1.24c-.69.49-1.59.74-2.38.74-1.89,0-3.35-1.26-3.35-3.47ZM136.48,591.86c0-.65-.29-1.14-1.04-1.14-.58,0-1.08.37-1.21,1.14h2.25Z" fill="#fff"/><path d="M139.22,592.62c0-2.15,1.36-3.46,2.72-3.46.73,0,1.17.27,1.59.68l-.07-.98v-2.22h2.06v9.29h-1.69l-.15-.64h-.04c-.46.46-1.12.8-1.74.8-1.63,0-2.7-1.32-2.7-3.47ZM143.47,593.86v-2.63c-.32-.28-.7-.38-1.04-.38-.58,0-1.1.53-1.1,1.77s.43,1.79,1.13,1.79c.4,0,.7-.13,1.01-.54Z" fill="#fff"/><path d="M147.06,587.33c0-.64.48-1.05,1.16-1.05s1.16.41,1.16,1.05-.48,1.06-1.16,1.06-1.16-.41-1.16-1.06ZM147.19,589.33h2.05v6.61h-2.05v-6.61Z" fill="#fff"/><path d="M150.62,594.08c0-1.4,1.08-2.15,3.68-2.42-.05-.54-.33-.86-1.01-.86-.53,0-1.06.19-1.73.56l-.72-1.33c.86-.53,1.81-.86,2.84-.86,1.7,0,2.66.94,2.66,3.02v3.75h-1.67l-.15-.66h-.05c-.54.49-1.14.82-1.89.82-1.21,0-1.97-.9-1.97-2.01ZM154.3,593.98v-1.05c-1.32.17-1.71.53-1.71,1,0,.39.25.57.7.57.41,0,.69-.2,1.01-.52Z" fill="#fff"/><path d="M160.78,587.28h2.07v6.92h3.36v1.73h-5.44v-8.65Z" fill="#fff"/><path d="M167.42,587.33c0-.64.48-1.05,1.16-1.05s1.16.41,1.16,1.05-.48,1.06-1.16,1.06-1.16-.41-1.16-1.06ZM167.56,589.33h2.05v6.61h-2.05v-6.61Z" fill="#fff"/><path d="M173.1,595.23h-.05l-.16.7h-1.61v-9.29h2.05v2.23l-.04,1c.49-.44,1.09-.7,1.7-.7,1.59,0,2.59,1.32,2.59,3.35,0,2.27-1.34,3.58-2.76,3.58-.6,0-1.2-.29-1.71-.86ZM175.46,592.54c0-1.16-.35-1.7-1.08-1.7-.39,0-.7.17-1.06.56v2.62c.33.29.68.39,1,.39.64,0,1.14-.52,1.14-1.86Z" fill="#fff"/><path d="M178.92,589.33h1.67l.15,1.14h.05c.48-.89,1.21-1.3,1.87-1.3.39,0,.61.04.8.13l-.39,1.74c-.24-.05-.39-.08-.68-.08-.49,0-1.09.32-1.44,1.2v3.77h-2.05v-6.61Z" fill="#fff"/><path d="M183.63,594.08c0-1.4,1.08-2.15,3.68-2.42-.05-.54-.33-.86-1.01-.86-.53,0-1.06.19-1.73.56l-.72-1.33c.86-.53,1.81-.86,2.84-.86,1.7,0,2.66.94,2.66,3.02v3.75h-1.67l-.15-.66h-.05c-.54.49-1.14.82-1.89.82-1.21,0-1.97-.9-1.97-2.01ZM187.31,593.98v-1.05c-1.32.17-1.71.53-1.71,1,0,.39.25.57.7.57.41,0,.69-.2,1.01-.52Z" fill="#fff"/><path d="M190.97,589.33h1.67l.15,1.14h.05c.48-.89,1.21-1.3,1.87-1.3.39,0,.61.04.8.13l-.39,1.74c-.24-.05-.39-.08-.68-.08-.49,0-1.09.32-1.44,1.2v3.77h-2.05v-6.61Z" fill="#fff"/><path d="M196.22,587.33c0-.64.48-1.05,1.16-1.05s1.16.41,1.16,1.05-.48,1.06-1.16,1.06-1.16-.41-1.16-1.06ZM196.35,589.33h2.05v6.61h-2.05v-6.61Z" fill="#fff"/><path d="M199.7,592.62c0-2.14,1.54-3.46,3.12-3.46,1.91,0,2.84,1.38,2.84,3.18,0,.37-.04.72-.08.9h-3.89c.19.89.81,1.28,1.65,1.28.48,0,.96-.15,1.42-.41l.66,1.24c-.69.49-1.59.74-2.38.74-1.89,0-3.35-1.26-3.35-3.47ZM203.91,591.86c0-.65-.29-1.14-1.04-1.14-.58,0-1.08.37-1.21,1.14h2.25Z" fill="#fff"/><path d="M206.41,595.09l.86-1.16c.61.48,1.21.64,1.73.64.56,0,.78-.2.78-.52,0-.4-.56-.57-1.26-.84-.94-.35-1.74-.94-1.74-1.97,0-1.25,1.01-2.09,2.55-2.09.97,0,1.79.36,2.37.84l-.88,1.16c-.48-.35-.97-.48-1.42-.48-.48,0-.7.19-.7.48,0,.35.37.5,1.21.77,1.01.32,1.81.92,1.81,2.01,0,1.21-.96,2.15-2.75,2.15-.88,0-1.89-.35-2.55-1Z" fill="#fff"/></svg>